<?xml version="1.0" encoding="UTF-8"?><svg id="Lager_2" xmlns="http://www.w3.org/2000/svg" viewBox="0 0 333 306"><g id="Lager_1-2"><path d="M166.5,302c-89.6,0-162.5-66.8-162.5-149S76.9,4,166.5,4s162.5,66.8,162.5,149-72.9,149-162.5,149Z" style="fill:#e41427; stroke-width:0px;"/><path d="M166.5,8c42.5,0,82.4,15.2,112.3,42.7,29.8,27.4,46.2,63.7,46.2,102.3s-16.4,74.9-46.2,102.3c-30,27.5-69.9,42.7-112.3,42.7s-82.3-15.2-112.3-42.7c-29.8-27.4-46.2-63.7-46.2-102.3S24.4,78.1,54.2,50.7C84.2,23.2,124,8,166.5,8M166.5,0C74.5,0,0,68.5,0,153s74.5,153,166.5,153,166.5-68.5,166.5-153S258.5,0,166.5,0h0Z" style="fill:#000; stroke-width:0px;"/><path d="M203.7,72.8v5h0c4.2,0,8.1.4,11.9,1.2-4,6.3-6.1,13.3-6.1,20.5,0,17.3,12.1,32.8,31.4,40.7-3,5.5-6.8,10.4-11.2,14.1-10.1,8.4-23.1,10.6-41.2,13.6h0c-8.9,1.5-17.3,2.9-24.4,2.9s-5.7-.3-8-.8c-2.7-.6-4.8-1.6-6.6-3.1-1.1-.9-1.9-1.8-2.6-2.9-3.4-5.4-2.8-14.6-2-27.4h0c0-.1,0-.2,0-.2,1.3-18.8,1.9-29.2,9.3-38,9.9-11.9,30.7-20.5,49.5-20.5v-5M203.7,72.8c-21.1,0-42.9,9.7-53.3,22.3-8.4,10.1-9.1,21.5-10.4,41-.9,13.9-1.6,23.8,2.7,30.6.9,1.5,2.1,2.9,3.6,4.1,2.5,2,5.4,3.3,8.6,4.1,2.8.7,5.9.9,9.2.9,7.4,0,16-1.4,25.2-2.9,18.4-3,32.5-5.4,43.7-14.7,6.3-5.2,11.5-12.6,14.9-20.7-19.5-6.2-33.3-20.8-33.3-37.9s3.5-16.7,9.5-23.3c-6.4-2.4-13.3-3.4-20.3-3.4h0Z" style="fill:#000; stroke-width:0px;"/><path d="M155.2,174.5l-.3.3c-3.2-.8-6.1-2.1-8.6-4.1-1.5-1.2-2.7-2.6-3.6-4.1l.6-.6,12,8.4h0Z" style="fill:none; stroke:#000; stroke-miterlimit:10; stroke-width:5px;"/><path d="M127.3,224.8c0,5.1-4.7,9.2-10.6,9.2s-10.6-4.1-10.6-9.2.5-3.1,1.3-4.4l-2.2-1.6c-1.7,3.2-5.3,5.4-9.6,5.4s-10.6-4.1-10.6-9.2,4.7-9.2,10.6-9.2,5.9,1.2,7.8,3l39.3-42.2c.9,1.5,2.2,2.9,3.6,4.1,2.5,2,5.4,3.3,8.6,4.1l-38,40.9c5.7,0,10.3,4.2,10.3,9.2h0Z" style="fill:none; stroke:#000; stroke-miterlimit:10; stroke-width:5px;"/><path d="M243.8,134.4c-19.5-6.2-33.3-20.8-33.3-37.9s3.5-16.7,9.5-23.3c4.4,1.6,8.6,3.9,12.4,6.8,17.7,13.7,18.9,36.2,11.4,54.3h0Z" style="fill:none; stroke:#000; stroke-miterlimit:10; stroke-width:5px;"/></g></svg>