<?xml version="1.0" encoding="UTF-8"?><svg id="Lager_2" xmlns="http://www.w3.org/2000/svg" viewBox="0 0 333 306"><g id="Lager_1-2"><path d="M166.5,302c-89.6,0-162.5-66.8-162.5-149S76.9,4,166.5,4s162.5,66.8,162.5,149-72.9,149-162.5,149Z" style="fill:#d3247c; stroke-width:0px;"/><path d="M166.5,8c42.5,0,82.4,15.2,112.3,42.7,29.8,27.4,46.2,63.7,46.2,102.3s-16.4,74.9-46.2,102.3c-30,27.5-69.9,42.7-112.3,42.7s-82.4-15.2-112.3-42.7c-29.8-27.4-46.2-63.7-46.2-102.3S24.4,78.1,54.2,50.7C84.1,23.2,124,8,166.5,8M166.5,0C74.5,0,0,68.5,0,153s74.5,153,166.5,153,166.5-68.5,166.5-153S258.5,0,166.5,0h0Z" style="fill:#000; stroke-width:0px;"/><path d="M85.6,236.5c4.8-15,7.6-30.5,8.2-46,1.1-26.5-4-52.7-15-77.7h175.1c-2,4.2-3.8,8.5-5.5,12.8-12.9,34.1-14.2,71.4-4,110.9H85.6Z" style="fill:#d3247c; stroke-width:0px;"/><path d="M250.1,115.3c-1.4,3.1-2.7,6.3-3.9,9.4-12.7,33.7-14.4,70.4-4.9,109.3H89c4.3-14.2,6.7-28.8,7.3-43.4,1-25.7-3.6-51-13.7-75.3h167.4M258,110.3H75c7.5,16.2,17.8,44.5,16.4,80.1-.8,19.6-4.9,36.1-9.2,48.6h165.6c-7.6-27.9-13.3-69.2,3.1-112.5,2.2-5.7,4.6-11.1,7.2-16.2h0Z" style="fill:#000; stroke-width:0px;"/><line x1="81.1" y1="115" x2="240.6" y2="234.2" style="fill:none; stroke:#000; stroke-miterlimit:10; stroke-width:5px;"/><line x1="87.3" y1="234.2" x2="160.9" y2="174.2" style="fill:none; stroke:#000; stroke-miterlimit:10; stroke-width:5px;"/><polygon points="166.3 58 249.8 105.5 82.8 105.5 166.3 58" style="fill:none; fill-rule:evenodd; stroke:#000; stroke-miterlimit:10; stroke-width:5px;"/><line x1="199.7" y1="76.9" x2="235.5" y2="54" style="fill:none; stroke:#000; stroke-miterlimit:10; stroke-width:5px;"/><line x1="213" y1="84.5" x2="258" y2="57.8" style="fill:none; stroke:#000; stroke-miterlimit:10; stroke-width:5px;"/></g></svg>