<?xml version="1.0" encoding="UTF-8"?><svg id="Lager_2" xmlns="http://www.w3.org/2000/svg" viewBox="0 0 333 306"><g id="Lager_1-2"><path d="M166.5,302c-89.6,0-162.5-66.8-162.5-149S76.9,4,166.5,4s162.5,66.8,162.5,149-72.9,149-162.5,149Z" style="fill:#f3921f; stroke-width:0px;"/><path d="M166.5,8c42.5,0,82.4,15.2,112.3,42.7,29.8,27.4,46.2,63.7,46.2,102.3s-16.4,74.9-46.2,102.3c-30,27.5-69.9,42.7-112.3,42.7s-82.4-15.2-112.3-42.7c-29.8-27.4-46.2-63.7-46.2-102.3S24.4,78.1,54.2,50.7C84.1,23.2,124,8,166.5,8M166.5,0C74.5,0,0,68.5,0,153s74.5,153,166.5,153,166.5-68.5,166.5-153S258.5,0,166.5,0h0Z" style="fill:#000; stroke-width:0px;"/><path d="M258,142H74c0-5.5.8-10.9,2.2-16,9.2-33.8,45.9-59,89.8-59s80.3,25.1,89.7,58.6c1.5,5.3,2.3,10.7,2.3,16.4Z" style="fill:none; stroke:#000; stroke-miterlimit:10; stroke-width:5px;"/><line x1="77" y1="164" x2="256" y2="162" style="fill:none; stroke:#000; stroke-miterlimit:10; stroke-width:14px;"/><rect x="75" y="184" width="184" height="40" rx="13.9" ry="13.9" style="fill:none; stroke:#000; stroke-miterlimit:10; stroke-width:5px;"/><line x1="107" y1="104" x2="115" y2="101" style="fill:none; stroke:#000; stroke-miterlimit:10; stroke-width:6px;"/><line x1="167" y1="89" x2="174" y2="89" style="fill:none; stroke:#000; stroke-miterlimit:10; stroke-width:6px;"/><line x1="166" y1="114" x2="174" y2="111" style="fill:none; stroke:#000; stroke-miterlimit:10; stroke-width:6px;"/><line x1="202" y1="98" x2="208" y2="101" style="fill:none; stroke:#000; stroke-miterlimit:10; stroke-width:6px;"/><line x1="100" y1="127" x2="106" y2="127" style="fill:none; stroke:#000; stroke-miterlimit:10; stroke-width:6px;"/><line x1="134" y1="104" x2="135" y2="113" style="fill:none; stroke:#000; stroke-miterlimit:10; stroke-width:6px;"/><line x1="205" y1="120" x2="210" y2="120" style="fill:none; stroke:#000; stroke-miterlimit:10; stroke-width:6px;"/><line x1="233" y1="127" x2="233" y2="127" style="fill:none; stroke:#000; stroke-miterlimit:10; stroke-width:6px;"/><line x1="233" y1="109" x2="233" y2="113" style="fill:none; stroke:#000; stroke-miterlimit:10; stroke-width:6px;"/></g></svg>