<?xml version="1.0" encoding="UTF-8"?><svg id="Lager_2" xmlns="http://www.w3.org/2000/svg" viewBox="0 0 333 306"><g id="Lager_1-2"><path d="M166.5,302c-89.6,0-162.5-66.8-162.5-149S76.9,4,166.5,4s162.5,66.8,162.5,149-72.9,149-162.5,149Z" style="fill:#1db6c5; stroke-width:0px;"/><path d="M166.5,8c42.5,0,82.4,15.2,112.3,42.7,29.8,27.4,46.2,63.7,46.2,102.3s-16.4,74.9-46.2,102.3c-30,27.5-69.9,42.7-112.3,42.7s-82.4-15.2-112.3-42.7c-29.8-27.4-46.2-63.7-46.2-102.3S24.4,78.1,54.2,50.7C84.1,23.2,124,8,166.5,8M166.5,0C74.5,0,0,68.5,0,153s74.5,153,166.5,153,166.5-68.5,166.5-153S258.5,0,166.5,0h0Z" style="fill:#000; stroke-width:0px;"/><path d="M230.2,52.1v5c4.9,0,8.4,1.1,10.2,3.4.9,1.1,1.5,2.7,1.7,4.5-1.7-.2-3.4-.4-5-.4-7,0-13.4,2.2-18.5,6.3l-130.2,106.2c-6.4,5.2-10,12.8-10.6,21.8-1.8-.6-3.1-1.4-4.1-2.6-4.3-5.3-.5-18.5,9.9-34.5,11.9-18.2,31.1-38.6,54-57.3,34.9-28.5,72-47.6,92.5-47.6v-5M230.2,52.1c-21.1,0-58.7,18.5-95.7,48.7-48.1,39.3-77.1,83.5-64.6,98.8,2.7,3.3,7.2,5,13.1,5.2-.1-.9-.2-1.7-.2-2.6-.2-8.4,2.7-16.2,8.8-21.1l130.2-106.2c4.3-3.5,9.6-5.2,15.3-5.2,3.2,0,6.4.5,9.7,1.5,1-5.8.3-10.5-2.5-13.9-2.9-3.5-7.7-5.2-14.1-5.2h0Z" style="fill:#000; stroke-width:0px;"/><path d="M235.9,63.7v5c1.4,0,2.8.1,4.2.4,5.5,1,10.5,3.9,14,8.3,3.7,4.5,5.6,10.3,5.3,16.1h0s0,0,0,0c0,.3,0,.6,0,1.1-.6,6.2-3.7,11.9-8.5,15.8l-130.2,106.2c-4.2,3.5-9.4,5.3-14.8,5.3s-2.4,0-3.5-.3c-5.8-.9-11-3.8-14.7-8.4-3.5-4.3-5.4-9.8-5.3-15.4h0c0,0,0-.1,0-.1,0-.5,0-1,.1-1.7.6-6.2,3.7-11.9,8.5-15.8l130.2-106.2c4.2-3.5,9.4-5.3,14.8-5.3v-5M235.9,63.7c-6.3,0-12.7,2.1-18,6.4l-130.2,106.2c-6.1,5-9.6,12-10.3,19.2,0,.7-.1,1.5-.1,2.2-.2,6.6,1.9,13.2,6.4,18.7,4.7,5.7,11.1,9.2,17.9,10.2,1.4.2,2.8.3,4.3.3,6.3,0,12.7-2.1,18-6.4l130.2-106.2c6.1-5,9.6-12,10.3-19.2,0-.5,0-.9.1-1.4.4-6.8-1.7-13.8-6.4-19.5-4.5-5.5-10.6-8.9-17-10-1.7-.3-3.4-.5-5.1-.5h0Z" style="fill:#000; stroke-width:0px;"/><path d="M263.5,92c1.9.4,3.6,1.2,4.7,2.5,3.2,3.9,2.1,14.8-10.5,33.6-12.1,18-31.4,38.3-54.3,57-17.9,14.6-36.3,26.9-53.4,35.6-16,8.2-30,12.7-39.3,12.7s-7.1-.5-9.1-2.9c-1.1-1.4-1.5-3.2-1.5-5.1,1.2.1,2.4.2,3.6.2,7.2,0,13.7-2.3,18.9-6.5l130.2-106.2c6.2-5,9.9-12.3,10.7-20.8M259.1,86.6c-.2,0-.4,0-.5,0,0,.5,0,1,0,1.5,0,8.2-3,15.8-9.1,20.8l-130.2,106.2c-4.5,3.6-10,5.4-15.8,5.4s-5.3-.4-7.9-1c-1.3,6-.7,10.8,2,14.1,2.6,3.2,7.1,4.8,13,4.8,20.5,0,58.3-18.9,95.8-49.5,48.1-39.3,77.5-83,65.6-97.6-2.6-3.2-7.1-4.8-12.9-4.8h0Z" style="fill:#000; stroke-width:0px;"/><path d="M112.9,196.2c1.5-8.7,5-20.6,15-25.7,11.4-5.9,23.1,1.2,31.5-4.7,8.9-6.3.2-17.5,10-25.6,9.4-7.8,24.2-2.9,32.1-10.5,6.1-5.9,0-11.3,6.1-19.4,5.3-7,15.9-11,24.1-13.4" style="fill:none; stroke:#000; stroke-miterlimit:10; stroke-width:5px;"/></g></svg>