<?xml version="1.0" encoding="UTF-8"?><svg id="Lager_2" xmlns="http://www.w3.org/2000/svg" viewBox="0 0 333 306"><g id="Lager_1-2"><path d="M166.5,302C76.9,302,4,235.2,4,153S76.9,4,166.5,4s162.5,66.8,162.5,149-72.9,149-162.5,149Z" style="fill:#ffdb1f; stroke-width:0px;"/><path d="M166.5,8c42.5,0,82.4,15.2,112.3,42.7,29.8,27.4,46.2,63.7,46.2,102.3s-16.4,74.9-46.2,102.3c-30,27.5-69.9,42.7-112.3,42.7s-82.4-15.2-112.3-42.7c-29.8-27.4-46.2-63.7-46.2-102.3S24.4,78.1,54.2,50.7C84.1,23.2,124,8,166.5,8M166.5,0C74.5,0,0,68.5,0,153s74.5,153,166.5,153,166.5-68.5,166.5-153S258.5,0,166.5,0h0Z" style="fill:#000; stroke-width:0px;"/><path d="M144.5,93.9c12.3,0,24.2,1.8,35.3,5.3,2.9.9,5.7,1.9,8.5,3.1h0s0,0,0,0c.4.1.7.3,1.1.5h0s0,0,0,0c17.9,7.6,33.9,20,46.5,35.9.2.3.5.6.7.9h0s0,0,0,0c7.9,10.3,14.3,21.8,18.9,34.2,5.6,15.2,8.5,31.1,8.4,47.4L40.1,154.3c1.1-3.1,2.5-6.2,4.1-9.1,2.8-5.2,6.4-10.2,10.7-14.8,9-9.8,21.1-18.3,34.9-24.6h0s.1,0,.1,0h0s0,0,0,0c12.7-5.7,26.7-9.5,40.6-11,1.8-.2,3.5-.3,5-.4,2.9-.2,5.9-.3,8.8-.3h0M144.5,88.9c-3,0-6.1.1-9.1.3-1.7.1-3.5.3-5.2.4-14.8,1.6-29.2,5.5-42.2,11.4-.1,0-.2.1-.3.2-14.3,6.5-27,15.3-36.6,25.8-4.5,4.9-8.4,10.2-11.4,15.8-3.1,5.7-4.9,11-6,14.8l235.3,70.3c1-19.6-2.1-38.6-8.5-55.8-4.8-12.9-11.4-24.9-19.6-35.5-.3-.3-.5-.7-.8-1-12.9-16.4-29.5-29.4-48.4-37.4-.4-.2-.9-.4-1.3-.6-2.9-1.2-5.9-2.3-8.9-3.2-12-3.8-24.4-5.5-36.8-5.5h0Z" style="fill:#000; stroke-width:0px;"/><path d="M130.3,89.7c-14.8,1.6-29.2,5.5-42.2,11.4-.1,0-.2.1-.3.2,0-.1,0-.2,0-.4,2.3-14.4,13.5-24.8,25.7-23.5,7.2.8,13.2,5.5,16.8,12.3Z" style="fill:none; stroke:#000; stroke-miterlimit:10; stroke-width:5px;"/><path d="M186.3,99.1c-2.9-1.2-5.9-1.7-8.9-2.7-14.9-4.7-30.6-6.3-45.9-5.2,6.1-9,17-14.5,28.7-13.2,12.7,1.4,22.8,9.7,26.1,21.1Z" style="fill:none; stroke:#000; stroke-miterlimit:10; stroke-width:5px;"/><path d="M243.9,122.8c-.5,5-3.4,9.4-7.8,12.9-12.9-16.4-29.5-29.4-48.4-37.4,6.5-2.7,14.6-3.9,23.3-3,19.6,2.1,34.4,14.5,33,27.6Z" style="fill:none; stroke:#000; stroke-miterlimit:10; stroke-width:5px;"/><path d="M88.1,104.1c-.1,0-.2.1-.3.2-14.3,6.5-27,15.3-36.6,25.8-3.2-3.9-4.8-8.6-4.3-13.4,1.2-11.2,13.6-19.1,27.4-17.6,5,.5,9.7,2.3,13.5,4.8,0,0,.2.1.3.2Z" style="fill:none; stroke:#000; stroke-miterlimit:10; stroke-width:5px;"/><path d="M268.4,158.2c-.6,5.8-3.6,10.7-8,14-4.8-12.9-11.4-24.9-19.6-35.5,2.8-1,5.9-1.4,9.1-1,11.4,1.2,19.7,11.3,18.4,22.6Z" style="fill:none; stroke:#000; stroke-miterlimit:10; stroke-width:5px;"/><path d="M99.9,143.6c1.9,0,1.9-3,0-3s-1.9,3,0,3h0Z" style="fill:#000; stroke-width:0px;"/><path d="M122.5,128.3c1.9,0,1.9-3,0-3s-1.9,3,0,3h0Z" style="fill:#000; stroke-width:0px;"/><path d="M144.2,153.9c1.9,0,1.9-3,0-3s-1.9,3,0,3h0Z" style="fill:#000; stroke-width:0px;"/><path d="M157.4,129.8c1.9,0,1.9-3,0-3s-1.9,3,0,3h0Z" style="fill:#000; stroke-width:0px;"/><path d="M193.5,176.2c1.9,0,1.9-3,0-3s-1.9,3,0,3h0Z" style="fill:#000; stroke-width:0px;"/><path d="M196.2,153.5c1.9,0,1.9-3,0-3s-1.9,3,0,3h0Z" style="fill:#000; stroke-width:0px;"/><path d="M79.2,132.3c1.9,0,1.9-3,0-3s-1.9,3,0,3h0Z" style="fill:#000; stroke-width:0px;"/><path d="M161.4,106c1.9,0,1.9-3,0-3s-1.9,3,0,3h0Z" style="fill:#000; stroke-width:0px;"/><path d="M243.5,215.3c1.9,0,1.9-3,0-3s-1.9,3,0,3h0Z" style="fill:#000; stroke-width:0px;"/><path d="M246.7,187.5c1.9,0,1.9-3,0-3s-1.9,3,0,3h0Z" style="fill:#000; stroke-width:0px;"/><path d="M215.4,200.5c1.9,0,1.9-3,0-3s-1.9,3,0,3h0Z" style="fill:#000; stroke-width:0px;"/><path d="M223.8,183.6c1.9,0,1.9-3,0-3s-1.9,3,0,3h0Z" style="fill:#000; stroke-width:0px;"/><path d="M236.2,188.8c1.9,0,1.9-3,0-3s-1.9,3,0,3h0Z" style="fill:#000; stroke-width:0px;"/><path d="M222.5,150.2c1.9,0,1.9-3,0-3s-1.9,3,0,3h0Z" style="fill:#000; stroke-width:0px;"/><path d="M196.8,136.9c1.9,0,1.9-3,0-3s-1.9,3,0,3h0Z" style="fill:#000; stroke-width:0px;"/><path d="M157.5,184.8c1.9,0,1.9-3,0-3s-1.9,3,0,3h0Z" style="fill:#000; stroke-width:0px;"/><path d="M167.3,156.5c1.9,0,1.9-3,0-3s-1.9,3,0,3h0Z" style="fill:#000; stroke-width:0px;"/><path d="M117.8,112.4c1.9,0,1.9-3,0-3s-1.9,3,0,3h0Z" style="fill:#000; stroke-width:0px;"/><path d="M95.6,125.2c1.9,0,1.9-3,0-3s-1.9,3,0,3h0Z" style="fill:#000; stroke-width:0px;"/><path d="M131.5,174.1c1.9,0,1.9-3,0-3s-1.9,3,0,3h0Z" style="fill:#000; stroke-width:0px;"/><path d="M127.7,150.7c1.9,0,1.9-3,0-3s-1.9,3,0,3h0Z" style="fill:#000; stroke-width:0px;"/><path d="M74.3,152.2c1.9,0,1.9-3,0-3s-1.9,3,0,3h0Z" style="fill:#000; stroke-width:0px;"/><path d="M176.6,132c1.9,0,1.9-3,0-3s-1.9,3,0,3h0Z" style="fill:#000; stroke-width:0px;"/><path d="M140.8,116.4c1.9,0,1.9-3,0-3s-1.9,3,0,3h0Z" style="fill:#000; stroke-width:0px;"/><path d="M191.7,124.8c1.9,0,1.9-3,0-3s-1.9,3,0,3h0Z" style="fill:#000; stroke-width:0px;"/><path d="M185.4,179.1c1.9,0,1.9-3,0-3s-1.9,3,0,3h0Z" style="fill:#000; stroke-width:0px;"/><path d="M183.3,163.5c1.9,0,1.9-3,0-3s-1.9,3,0,3h0Z" style="fill:#000; stroke-width:0px;"/><path d="M236.8,172.3c1.9,0,1.9-3,0-3s-1.9,3,0,3h0Z" style="fill:#000; stroke-width:0px;"/><path d="M216.2,159.7c1.9,0,1.9-3,0-3s-1.9,3,0,3h0Z" style="fill:#000; stroke-width:0px;"/><path d="M244.4,207.7c1.9,0,1.9-3,0-3s-1.9,3,0,3h0Z" style="fill:#000; stroke-width:0px;"/><path d="M97.2,167.6c1.9,0,1.9-3,0-3s-1.9,3,0,3h0Z" style="fill:#000; stroke-width:0px;"/><path d="M97.5,153.6c1.9,0,1.9-3,0-3s-1.9,3,0,3h0Z" style="fill:#000; stroke-width:0px;"/><path d="M129.5,157.3c1.9,0,1.9-3,0-3s-1.9,3,0,3h0Z" style="fill:#000; stroke-width:0px;"/></g></svg>