<?xml version="1.0" encoding="UTF-8"?><svg id="Lager_2" xmlns="http://www.w3.org/2000/svg" viewBox="0 0 333 306"><g id="Lager_1-2"><path d="M166.5,302c-89.6,0-162.5-66.8-162.5-149S76.9,4,166.5,4s162.5,66.8,162.5,149-72.9,149-162.5,149Z" style="fill:#adceca; stroke-width:0px;"/><path d="M166.5,8c42.5,0,82.3,15.2,112.3,42.7,29.8,27.4,46.2,63.7,46.2,102.3s-16.4,74.9-46.2,102.3c-30,27.5-69.9,42.7-112.3,42.7s-82.3-15.2-112.3-42.7c-29.8-27.4-46.2-63.7-46.2-102.3S24.4,78.1,54.2,50.7C84.1,23.2,124,8,166.5,8M166.5,0C74.5,0,0,68.5,0,153s74.5,153,166.5,153,166.5-68.5,166.5-153S258.5,0,166.5,0h0Z" style="fill:#000; stroke-width:0px;"/><line x1="110.6" y1="71.4" x2="110.6" y2="249" style="fill:none; stroke:#000; stroke-miterlimit:10; stroke-width:5px;"/><path d="M258,161.7c-11.6,4.3-26.7,7.8-43.8,5.9-27.4-3.1-38.8-17.8-61.8-16-10.3.8-22.8,4.9-36.6,16.8v-81.4c17.5-11.8,31.9-14.4,41.9-14.5,23.4-.2,34.1,13.8,59.4,14.7,16.5.6,30.2-4.5,39-8.8.7,27.8,1.3,55.6,1.9,83.4h0Z" style="fill:none; stroke:#000; stroke-miterlimit:10; stroke-width:5px;"/><ellipse cx="110.6" cy="72.4" rx="4.1" ry="3.9" style="fill:none; stroke:#000; stroke-miterlimit:10; stroke-width:7px;"/></g></svg>