<?xml version="1.0" encoding="UTF-8"?><svg id="Lager_2" xmlns="http://www.w3.org/2000/svg" viewBox="0 0 246.2 327.9"><g id="Lager_1-2"><path d="M216.9,170.1h-.4l-94.6,154L29,170.1h-.3C9,135.2-.3,113.9,2.5,96.2,9.5,50.8,59,2,123.1,2c61.7,0,113.5,47.8,120.6,94.2,2.8,18-6.6,39.7-26.8,73.9Z" style="fill:#d38493; stroke:#060606; stroke-miterlimit:10; stroke-width:4px;"/><path d="M123.4,199.5c-50.7,0-92-38.8-92-86.5S72.6,26.5,123.4,26.5s92,38.8,92,86.5-41.3,86.5-92,86.5Z" style="fill:#d3247c; stroke-width:0px;"/><path d="M123.4,28.5c49.6,0,90,37.9,90,84.5s-40.4,84.5-90,84.5-90-37.9-90-84.5S73.7,28.5,123.4,28.5M123.4,24.5c-51.9,0-94,39.6-94,88.5s42.1,88.5,94,88.5,94-39.6,94-88.5S175.3,24.5,123.4,24.5h0Z" style="fill:#000; stroke-width:0px;"/><path d="M78.5,160.8c2.6-8.5,4.1-17.3,4.5-26.1.6-15.2-2.2-30.1-8.2-44.4h97.1c-1,2.2-1.9,4.4-2.8,6.7-7.2,19.6-8.1,41.1-2.4,63.8h-88.2Z" style="fill:#d3247c; stroke-width:0px;"/><path d="M168.8,92.3c-.6,1.3-1.1,2.7-1.6,4-7.1,19.3-8.2,40.3-3.1,62.5h-83c2.2-7.9,3.5-15.9,3.8-24,.6-14.5-1.9-28.8-7.2-42.5h91.1M175,88.3h-103.3c4.3,9.4,10,25.7,9.2,46.3-.4,11.3-2.8,20.9-5.2,28.1h93.5c-4.3-16.2-7.5-40,1.7-65.1,1.2-3.3,2.6-6.4,4-9.4h0Z" style="fill:#000; stroke-width:0px;"/><line x1="75.2" y1="91.1" x2="165.2" y2="160" style="fill:none; stroke:#000; stroke-miterlimit:10; stroke-width:4px;"/><line x1="78.6" y1="160" x2="120.2" y2="125.3" style="fill:none; stroke:#000; stroke-miterlimit:10; stroke-width:4px;"/><polygon points="123.3 58.1 170.4 85.5 76.1 85.5 123.3 58.1" style="fill:none; fill-rule:evenodd; stroke:#000; stroke-miterlimit:10; stroke-width:4px;"/><line x1="142.1" y1="69" x2="162.3" y2="55.8" style="fill:none; stroke:#000; stroke-miterlimit:10; stroke-width:4px;"/><line x1="149.6" y1="73.4" x2="175" y2="58" style="fill:none; stroke:#000; stroke-miterlimit:10; stroke-width:4px;"/></g></svg>