<?xml version="1.0" encoding="UTF-8"?><svg id="Lager_2" xmlns="http://www.w3.org/2000/svg" viewBox="0 0 246.2 327.9"><g id="Lager_1-2"><path d="M216.9,170.1h-.4l-94.6,154L29,170.1h-.3C9,135.2-.3,113.9,2.5,96.2,9.5,50.8,59,2,123.1,2c61.7,0,113.5,47.8,120.6,94.2,2.8,18-6.6,39.7-26.8,73.9Z" style="fill:#e16627; stroke:#060606; stroke-miterlimit:10; stroke-width:4px;"/><path d="M122.6,200.1c-50.7,0-92-38.8-92-86.5S71.9,27.1,122.6,27.1s92,38.8,92,86.5-41.3,86.5-92,86.5Z" style="fill:#e41427; stroke-width:0px;"/><path d="M122.6,29.1c49.6,0,90,37.9,90,84.5s-40.4,84.5-90,84.5-90-37.9-90-84.5S73,29.1,122.6,29.1M122.6,25.1c-51.9,0-94,39.6-94,88.5s42.1,88.5,94,88.5,94-39.6,94-88.5S174.5,25.1,122.6,25.1h0Z" style="fill:#000; stroke-width:0px;"/><path d="M143.6,67.2v4c1.7,0,3.3.1,4.9.4-1.9,3.5-2.8,7.2-2.8,11.1,0,10.1,6.7,19.2,17.3,24.1-1.5,2.7-3.4,5-5.5,6.8-5.4,4.7-12.7,5.9-22.7,7.6-5,.8-9.7,1.6-13.5,1.6s-3-.1-4.2-.4c-1.3-.3-2.4-.8-3.2-1.5-.5-.4-.9-.9-1.2-1.4-1.8-2.8-1.4-8-1-15.3h0c.7-10.8,1.1-16.7,5-21.5,5.4-6.6,16.7-11.4,27-11.4v-4M143.6,67.2c-11.9,0-24.2,5.6-30.1,12.9-4.7,5.8-5.2,12.4-5.9,23.7-.5,8.1-.9,13.8,1.5,17.7.5.9,1.2,1.7,2.1,2.4,1.4,1.2,3,1.9,4.8,2.3,1.6.4,3.3.5,5.2.5,4.2,0,9-.8,14.2-1.7,10.4-1.8,18.4-3.1,24.7-8.5,3.5-3,6.5-7.3,8.4-12-11-3.6-18.8-12-18.8-21.9s2-9.6,5.4-13.5c-3.6-1.4-7.5-2-11.5-2h0Z" style="fill:#000; stroke-width:0px;"/><path d="M116.2,126l-.2.2c-1.8-.4-3.5-1.2-4.9-2.3-.8-.7-1.5-1.5-2.1-2.4l.3-.3,6.8,4.9Z" style="fill:none; fill-rule:evenodd; stroke:#000; stroke-miterlimit:10; stroke-width:5px;"/><path d="M100.5,155.1c0,2.9-2.7,5.3-6,5.3s-6-2.4-6-5.3.3-1.8.7-2.5l-1.3-.9c-.9,1.8-3,3.1-5.4,3.1s-6-2.4-6-5.3,2.7-5.3,6-5.3,3.3.7,4.4,1.8l22.2-24.4c.5.9,1.2,1.7,2.1,2.4,1.4,1.2,3,1.9,4.9,2.3l-21.5,23.6c3.2,0,5.8,2.4,5.8,5.3Z" style="fill:none; fill-rule:evenodd; stroke:#000; stroke-miterlimit:10; stroke-width:4px;"/><path d="M166.2,102.8c-11-3.6-18.8-12-18.8-21.9s2-9.6,5.4-13.5c2.5.9,4.8,2.2,7,4,10,7.9,10.7,20.9,6.4,31.4Z" style="fill:none; fill-rule:evenodd; stroke:#000; stroke-miterlimit:10; stroke-width:4px;"/></g></svg>