<?xml version="1.0" encoding="UTF-8"?><svg id="Lager_2" xmlns="http://www.w3.org/2000/svg" viewBox="0 0 246.2 327.9"><g id="Lager_1-2"><path d="M216.9,170.1h-.4l-94.6,154L29,170.1h-.3C9,135.2-.3,113.9,2.5,96.2,9.5,50.8,59,2,123.1,2c61.7,0,113.5,47.8,120.6,94.2,2.8,18-6.6,39.7-26.8,73.9Z" style="fill:#f3b81f; stroke:#060606; stroke-miterlimit:10; stroke-width:4px;"/><path d="M123.1,196c-50.7,0-92-38.8-92-86.5S72.4,23,123.1,23s92,38.8,92,86.5-41.3,86.5-92,86.5Z" style="fill:#f3921f; stroke-width:0px;"/><path d="M123.1,25c49.6,0,90,37.9,90,84.5s-40.4,84.5-90,84.5-90-37.9-90-84.5S73.5,25,123.1,25M123.1,21c-51.9,0-94,39.6-94,88.5s42.1,88.5,94,88.5,94-39.6,94-88.5S175,21,123.1,21h0Z" style="fill:#000; stroke-width:0px;"/><path d="M174.8,103.2h-103.9c0-3.2.5-6.3,1.3-9.3,5.2-19.5,25.9-34.1,50.7-34.1s45.3,14.5,50.6,33.9c.8,3,1.3,6.2,1.3,9.5Z" style="fill:none; stroke:#000; stroke-miterlimit:10; stroke-width:4px;"/><line x1="72.6" y1="115.9" x2="173.6" y2="114.7" style="fill:none; stroke:#000; stroke-miterlimit:10; stroke-width:11px;"/><rect x="71.5" y="127.5" width="103.9" height="23.1" rx="9.9" ry="9.9" style="fill:none; stroke:#000; stroke-miterlimit:10; stroke-width:4px;"/><line x1="89.5" y1="81.2" x2="94" y2="79.5" style="fill:none; stroke:#000; stroke-miterlimit:10; stroke-width:6px;"/><line x1="123.4" y1="72.5" x2="127.4" y2="72.5" style="fill:none; stroke:#000; stroke-miterlimit:10; stroke-width:6px;"/><line x1="122.8" y1="87" x2="127.4" y2="85.2" style="fill:none; stroke:#000; stroke-miterlimit:10; stroke-width:6px;"/><line x1="143.2" y1="77.7" x2="146.6" y2="79.5" style="fill:none; stroke:#000; stroke-miterlimit:10; stroke-width:6px;"/><line x1="85.6" y1="94.5" x2="89" y2="94.5" style="fill:none; stroke:#000; stroke-miterlimit:10; stroke-width:6px;"/><line x1="104.8" y1="81.2" x2="105.3" y2="86.4" style="fill:none; stroke:#000; stroke-miterlimit:10; stroke-width:6px;"/><line x1="144.9" y1="90.5" x2="147.7" y2="90.5" style="fill:none; stroke:#000; stroke-miterlimit:10; stroke-width:6px;"/><line x1="160.7" y1="84.1" x2="160.7" y2="86.4" style="fill:none; stroke:#000; stroke-miterlimit:10; stroke-width:6px;"/></g></svg>