<?xml version="1.0" encoding="UTF-8"?><svg id="Lager_2" xmlns="http://www.w3.org/2000/svg" viewBox="0 0 246.2 327.9"><g id="Lager_1-2"><path d="M216.9,170.1h-.4l-94.6,154L29,170.1h-.3C9,135.2-.3,113.9,2.5,96.2,9.5,50.8,59,2,123.1,2c61.7,0,113.5,47.8,120.6,94.2,2.8,18-6.6,39.7-26.8,73.9Z" style="fill:#1da6c5; stroke:#060606; stroke-miterlimit:10; stroke-width:4px;"/><path d="M122.7,196c-50.7,0-92-38.8-92-86.5S72,23,122.7,23s92,38.8,92,86.5-41.3,86.5-92,86.5Z" style="fill:#1db6c5; stroke-width:0px;"/><path d="M122.7,25c49.6,0,90,37.9,90,84.5s-40.4,84.5-90,84.5-90-37.9-90-84.5S73.1,25,122.7,25M122.7,21c-51.9,0-94,39.6-94,88.5s42.1,88.5,94,88.5,94-39.6,94-88.5S174.7,21,122.7,21h0Z" style="fill:#000; stroke-width:0px;"/><path d="M160.1,54.7v4c2.5,0,4.4.5,5.3,1.5,0,0,0,0,0,0-.4,0-.9,0-1.3,0-4.3,0-8.2,1.3-11.4,3.6l-76.4,57.7c-3.6,2.7-5.8,6.7-6.5,11.2-.3-.2-.6-.4-.8-.6-.6-.7-.8-1.7-.7-3.2.9-8.6,14.2-26.7,38-44.6,20.3-15.3,41.9-25.6,53.8-25.6v-4M160.1,54.7c-12.4,0-34.4,10-56.2,26.5-28.3,21.3-45.2,45.4-37.9,53.7,1.6,1.8,4.2,2.7,7.7,2.8,0-.5,0-.9-.1-1.4-.1-4.6,1.6-8.8,5.1-11.5l76.4-57.7c2.5-1.9,5.7-2.8,9-2.8,1.9,0,3.8.3,5.7.8.6-3.1.2-5.7-1.5-7.5-1.7-1.9-4.5-2.8-8.3-2.8h0Z" style="fill:#000; stroke-width:0px;"/><path d="M163.5,65.1h0c.8,0,1.6,0,2.3.2,3,.5,5.7,2,7.6,4.1,1.9,2.2,2.9,4.9,2.7,7.7h0s0,0,0,0c0,.2,0,.3,0,.5-.3,3-1.9,5.7-4.5,7.7l-76.4,57.7c-2.3,1.7-5.2,2.7-8.2,2.7s-1.3,0-2-.1c-3.2-.4-6-1.9-8-4.2-1.9-2.1-2.8-4.7-2.8-7.4h0s0,0,0,0c0-.2,0-.5,0-.8.3-3,1.9-5.7,4.5-7.7l76.4-57.7c2.3-1.7,5.2-2.7,8.1-2.7M163.5,61.1c-3.7,0-7.5,1.1-10.6,3.5l-76.4,57.7c-3.6,2.7-5.6,6.5-6.1,10.4,0,.4,0,.8,0,1.2,0,3.6,1.1,7.2,3.8,10.1,2.7,3.1,6.5,5,10.5,5.5.8.1,1.7.2,2.5.2,3.7,0,7.5-1.1,10.6-3.5l76.4-57.7c3.6-2.7,5.6-6.5,6.1-10.4,0-.2,0-.5,0-.7.2-3.7-1-7.5-3.7-10.6-2.6-3-6.2-4.8-10-5.4-1-.2-2-.2-3-.2h0Z" style="fill:#000; stroke-width:0px;"/><path d="M180.5,78c.5.2.9.4,1.2.7.5.5.6,1.4.5,2.7-.8,8.3-14.3,26.3-38.4,44.5-23.8,18-44.2,26.1-53.8,26.1s-3.9-.5-4.6-1.2c-.1-.1-.2-.3-.3-.5.3,0,.5,0,.8,0,4.4,0,8.4-1.3,11.7-3.7l76.4-57.7c3.5-2.6,5.8-6.5,6.6-10.8M177.1,73.5c-.1,0-.2,0-.3,0,0,.3,0,.6,0,.8,0,4.5-1.7,8.6-5.3,11.3l-76.4,57.7c-2.6,2-5.9,2.9-9.3,2.9s-3.1-.2-4.6-.6c-.8,3.2-.4,5.9,1.2,7.7,1.6,1.8,4.2,2.6,7.6,2.6,12.1,0,34.2-10.3,56.2-26.9,28.3-21.3,45.5-45.1,38.5-53-1.6-1.8-4.2-2.6-7.6-2.6h0Z" style="fill:#000; stroke-width:0px;"/><path d="M91.3,133c.9-4.7,2.9-11.2,8.8-14,6.7-3.2,13.6.6,18.5-2.5,5.2-3.4.1-9.5,5.9-13.9,5.5-4.2,14.2-1.6,18.9-5.7,3.6-3.2,0-6.1,3.6-10.5,3.1-3.8,9.4-6,14.1-7.3" style="fill:none; stroke:#000; stroke-miterlimit:10; stroke-width:4px;"/></g></svg>