<?xml version="1.0" encoding="UTF-8"?><svg id="Lager_2" xmlns="http://www.w3.org/2000/svg" viewBox="0 0 246.2 327.9"><g id="Lager_1-2"><path d="M216.9,170.1h-.4l-94.6,154L29,170.1h-.3C9,135.2-.3,113.9,2.5,96.2,9.5,50.8,59,2,123.1,2c61.7,0,113.5,47.8,120.6,94.2,2.8,18-6.6,39.7-26.8,73.9Z" style="fill:#ced8ca; stroke:#060606; stroke-miterlimit:10; stroke-width:4px;"/><path d="M123.1,194.1c-50.7,0-92-38.8-92-86.5S72.4,21.1,123.1,21.1s92,38.8,92,86.5-41.3,86.5-92,86.5Z" style="fill:#adceca; stroke-width:0px;"/><path d="M123.1,23.1c49.6,0,90,37.9,90,84.5s-40.4,84.5-90,84.5-90-37.9-90-84.5S73.5,23.1,123.1,23.1M123.1,19.1c-51.9,0-94,39.6-94,88.5s42.1,88.5,94,88.5,94-39.6,94-88.5S175,19.1,123.1,19.1h0Z" style="fill:#000; stroke-width:0px;"/><line x1="91.6" y1="60.5" x2="91.6" y2="163.2" style="fill:none; stroke:#000; stroke-miterlimit:10; stroke-width:4px;"/><path d="M174.8,112.7c-6.5,2.5-15.1,4.5-24.8,3.4-15.5-1.8-21.9-10.3-34.9-9.3-5.8.5-12.9,2.8-20.7,9.7v-47.1c9.9-6.8,18-8.3,23.7-8.4,13.2-.1,19.3,8,33.6,8.5,9.3.4,17-2.6,22-5.1.4,16.1.7,32.2,1.1,48.2Z" style="fill:none; fill-rule:evenodd; stroke:#000; stroke-miterlimit:10; stroke-width:4px;"/><ellipse cx="91.6" cy="61" rx="2.3" ry="2.3" style="fill:none; stroke:#000; stroke-miterlimit:10; stroke-width:7px;"/></g></svg>