<?xml version="1.0" encoding="UTF-8"?><svg id="Lager_2" xmlns="http://www.w3.org/2000/svg" viewBox="0 0 246.2 327.9"><g id="Lager_1-2"><path d="M216.9,170.1h-.4l-94.6,154L29,170.1h-.3C9,135.2-.3,113.9,2.5,96.2,9.5,50.8,59,2,123.1,2c61.7,0,113.5,47.8,120.6,94.2,2.8,18-6.6,39.7-26.8,73.9Z" style="fill:#ffe79b; stroke:#060606; stroke-miterlimit:10; stroke-width:4px;"/><path d="M122.6,195.1c-50.7,0-92-38.8-92-86.5S71.9,22.1,122.6,22.1s92,38.8,92,86.5-41.3,86.5-92,86.5Z" style="fill:#ffdb1f; stroke-width:0px;"/><path d="M122.6,24.1c49.6,0,90,37.9,90,84.5s-40.4,84.5-90,84.5-90-37.9-90-84.5S73,24.1,122.6,24.1M122.6,20.1c-51.9,0-94,39.6-94,88.5s42.1,88.5,94,88.5,94-39.6,94-88.5S174.5,20.1,122.6,20.1h0Z" style="fill:#000; stroke-width:0px;"/><path d="M110.2,75.5c6.8,0,13.4,1,19.6,3,1.6.5,3.2,1.1,4.7,1.7h0s0,0,0,0c.2,0,.4.2.6.2h0s0,0,0,0c9.9,4.3,18.8,11.4,25.8,20.4.1.2.3.3.4.5,4.4,5.9,8,12.4,10.5,19.5,3,8.2,4.5,16.8,4.7,25.5l-123.8-37.9c.5-1.4,1.2-2.8,1.9-4.1,1.5-2.9,3.5-5.7,5.9-8.4,5-5.6,11.7-10.4,19.3-14h0s0,0,0,0h0s0,0,0,0c7-3.2,14.8-5.4,22.6-6.2,1-.1,1.9-.2,2.8-.2,1.6-.1,3.3-.2,4.9-.2M110.2,71.5c-1.7,0-3.4,0-5.1.2-1,0-1.9.2-2.9.3-8.4.9-16.5,3.2-23.8,6.6,0,0-.1,0-.2,0-8.1,3.8-15.2,8.9-20.6,14.9-2.6,2.9-4.7,5.9-6.4,9.2-1.8,3.3-2.8,6.3-3.4,8.6l132.8,40.7c.5-11.4-1.2-22.3-4.8-32.3-2.7-7.5-6.5-14.4-11.1-20.6-.1-.2-.3-.4-.4-.6-7.3-9.5-16.6-17-27.3-21.7-.3-.1-.5-.2-.8-.3-1.6-.7-3.3-1.3-5-1.9-6.8-2.2-13.8-3.2-20.8-3.2h0Z" style="fill:#000; stroke-width:0px;"/><path d="M102.2,72c-8.4.9-16.5,3.2-23.8,6.6,0,0-.1,0-.2,0,0,0,0-.1,0-.2,1.3-8.3,7.6-14.3,14.5-13.6,4.1.5,7.5,3.2,9.5,7.1Z" style="fill:none; stroke:#000; stroke-miterlimit:10; stroke-width:4px;"/><path d="M133.8,77.4c-1.6-.7-3.3-1-5-1.6-8.4-2.7-17.3-3.6-25.9-3,3.4-5.2,9.6-8.4,16.2-7.6,7.2.8,12.9,5.6,14.8,12.2Z" style="fill:none; stroke:#000; stroke-miterlimit:10; stroke-width:4px;"/><path d="M166.3,91.1c-.3,2.9-1.9,5.5-4.4,7.4-7.3-9.5-16.6-17-27.3-21.7,3.7-1.6,8.3-2.3,13.1-1.7,11.1,1.2,19.4,8.4,18.6,16Z" style="fill:none; stroke:#000; stroke-miterlimit:10; stroke-width:4px;"/><path d="M78.4,80.3c0,0-.1,0-.2,0-8.1,3.8-15.2,8.9-20.6,14.9-1.8-2.2-2.7-5-2.4-7.7.7-6.5,7.7-11.1,15.5-10.2s5.5,1.3,7.6,2.8c0,0,.1,0,.2.1Z" style="fill:none; stroke:#000; stroke-miterlimit:10; stroke-width:4px;"/><path d="M180.2,111.6c-.4,3.3-2.1,6.2-4.5,8.1-2.7-7.5-6.5-14.4-11.1-20.6,1.6-.6,3.4-.8,5.2-.6,6.4.7,11.1,6.6,10.4,13.1Z" style="fill:none; stroke:#000; stroke-miterlimit:10; stroke-width:4px;"/><path d="M85,103.8c1.9,0,1.9-3,0-3s-1.9,3,0,3h0Z" style="fill:#000; stroke-width:0px;"/><path d="M97.8,95c1.9,0,1.9-3,0-3s-1.9,3,0,3h0Z" style="fill:#000; stroke-width:0px;"/><path d="M110,109.7c1.9,0,1.9-3,0-3s-1.9,3,0,3h0Z" style="fill:#000; stroke-width:0px;"/><path d="M117.5,95.8c1.9,0,1.9-3,0-3s-1.9,3,0,3h0Z" style="fill:#000; stroke-width:0px;"/><path d="M137.9,122.6c1.9,0,1.9-3,0-3s-1.9,3,0,3h0Z" style="fill:#000; stroke-width:0px;"/><path d="M139.4,109.5c1.9,0,1.9-3,0-3s-1.9,3,0,3h0Z" style="fill:#000; stroke-width:0px;"/><path d="M73.3,97.2c1.9,0,1.9-3,0-3s-1.9,3,0,3h0Z" style="fill:#000; stroke-width:0px;"/><path d="M119.8,82c1.9,0,1.9-3,0-3s-1.9,3,0,3h0Z" style="fill:#000; stroke-width:0px;"/><path d="M166.1,145.2c1.9,0,1.9-3,0-3s-1.9,3,0,3h0Z" style="fill:#000; stroke-width:0px;"/><path d="M167.9,129.2c1.9,0,1.9-3,0-3s-1.9,3,0,3h0Z" style="fill:#000; stroke-width:0px;"/><path d="M150.2,136.7c1.9,0,1.9-3,0-3s-1.9,3,0,3h0Z" style="fill:#000; stroke-width:0px;"/><path d="M155,126.9c1.9,0,1.9-3,0-3s-1.9,3,0,3h0Z" style="fill:#000; stroke-width:0px;"/><path d="M162,129.9c1.9,0,1.9-3,0-3s-1.9,3,0,3h0Z" style="fill:#000; stroke-width:0px;"/><path d="M154.2,107.6c1.9,0,1.9-3,0-3s-1.9,3,0,3h0Z" style="fill:#000; stroke-width:0px;"/><path d="M139.7,99.9c1.9,0,1.9-3,0-3s-1.9,3,0,3h0Z" style="fill:#000; stroke-width:0px;"/><path d="M117.5,127.6c1.9,0,1.9-3,0-3s-1.9,3,0,3h0Z" style="fill:#000; stroke-width:0px;"/><path d="M123,111.3c1.9,0,1.9-3,0-3s-1.9,3,0,3h0Z" style="fill:#000; stroke-width:0px;"/><path d="M95.1,85.8c1.9,0,1.9-3,0-3s-1.9,3,0,3h0Z" style="fill:#000; stroke-width:0px;"/><path d="M82.6,93.1c1.9,0,1.9-3,0-3s-1.9,3,0,3h0Z" style="fill:#000; stroke-width:0px;"/><path d="M102.8,121.4c1.9,0,1.9-3,0-3s-1.9,3,0,3h0Z" style="fill:#000; stroke-width:0px;"/><path d="M100.7,107.9c1.9,0,1.9-3,0-3s-1.9,3,0,3h0Z" style="fill:#000; stroke-width:0px;"/><path d="M70.6,108.7c1.9,0,1.9-3,0-3s-1.9,3,0,3h0Z" style="fill:#000; stroke-width:0px;"/><path d="M128.3,97.1c1.9,0,1.9-3,0-3s-1.9,3,0,3h0Z" style="fill:#000; stroke-width:0px;"/><path d="M108.1,88c1.9,0,1.9-3,0-3s-1.9,3,0,3h0Z" style="fill:#000; stroke-width:0px;"/><path d="M136.8,92.9c1.9,0,1.9-3,0-3s-1.9,3,0,3h0Z" style="fill:#000; stroke-width:0px;"/><path d="M133.3,124.3c1.9,0,1.9-3,0-3s-1.9,3,0,3h0Z" style="fill:#000; stroke-width:0px;"/><path d="M132.1,115.3c1.9,0,1.9-3,0-3s-1.9,3,0,3h0Z" style="fill:#000; stroke-width:0px;"/><path d="M162.3,120.4c1.9,0,1.9-3,0-3s-1.9,3,0,3h0Z" style="fill:#000; stroke-width:0px;"/><path d="M150.7,113.1c1.9,0,1.9-3,0-3s-1.9,3,0,3h0Z" style="fill:#000; stroke-width:0px;"/><path d="M166.6,140.9c1.9,0,1.9-3,0-3s-1.9,3,0,3h0Z" style="fill:#000; stroke-width:0px;"/><path d="M83.5,117.7c1.9,0,1.9-3,0-3s-1.9,3,0,3h0Z" style="fill:#000; stroke-width:0px;"/><path d="M83.7,109.5c1.9,0,1.9-3,0-3s-1.9,3,0,3h0Z" style="fill:#000; stroke-width:0px;"/><path d="M101.7,111.7c1.9,0,1.9-3,0-3s-1.9,3,0,3h0Z" style="fill:#000; stroke-width:0px;"/></g></svg>