<?xml version="1.0" encoding="UTF-8"?><svg id="Lager_2" xmlns="http://www.w3.org/2000/svg" viewBox="0 0 246.2 327.9"><g id="Lager_1-2"><path d="M216.9,170.1h-.4l-94.6,154L29,170.1h-.3C9,135.2-.3,113.9,2.5,96.2,9.5,50.8,59,2,123.1,2c61.7,0,113.5,47.8,120.6,94.2,2.8,18-6.6,39.7-26.8,73.9Z" style="fill:#0068a6; stroke:#060606; stroke-miterlimit:10; stroke-width:4px;"/><path d="M123.1,198.1c-50.7,0-92-38.8-92-86.5S72.4,25.1,123.1,25.1s92,38.8,92,86.5-41.3,86.5-92,86.5Z" style="fill:#007ebf; stroke-width:0px;"/><path d="M123.1,27.1c49.6,0,90,37.9,90,84.5s-40.4,84.5-90,84.5-90-37.9-90-84.5S73.5,27.1,123.1,27.1M123.1,23.1c-51.9,0-94,39.6-94,88.5s42.1,88.5,94,88.5,94-39.6,94-88.5S175,23.1,123.1,23.1h0Z" style="fill:#000; stroke-width:0px;"/><line x1="163.6" y1="90" x2="159.2" y2="95.2" style="fill:none; stroke:#000; stroke-miterlimit:10; stroke-width:5px;"/><line x1="131.1" y1="128.5" x2="126" y2="134.7" style="fill:none; stroke:#000; stroke-miterlimit:10; stroke-width:5px;"/><line x1="112.9" y1="150.2" x2="93.6" y2="173.2" style="fill:none; stroke:#000; stroke-miterlimit:10; stroke-width:4px;"/><line x1="146.2" y1="110.6" x2="142" y2="115.6" style="fill:none; stroke:#000; stroke-miterlimit:10; stroke-width:5px;"/><line x1="179.8" y1="70.7" x2="174.5" y2="77" style="fill:none; stroke:#000; stroke-miterlimit:10; stroke-width:4px;"/><polygon points="180.2 82.8 169.3 95.7 163.6 90 157.4 83.8 168.3 70.9 174.5 77 180.2 82.8" style="fill:none; fill-rule:evenodd; stroke:#000; stroke-miterlimit:10; stroke-width:4px;"/><path d="M162,102.5c0,5.8-4.3,10.5-9.7,10.5s-4.5-.9-6.1-2.4c-2.2-1.9-3.5-4.8-3.5-8.1,0-5.8,4.3-10.5,9.7-10.5s5.1,1.2,6.9,3.1c1.7,1.9,2.8,4.5,2.8,7.4Z" style="fill:none; fill-rule:evenodd; stroke:#000; stroke-miterlimit:10; stroke-width:4px;"/><polygon points="148.2 121.8 137.3 134.7 131.1 128.5 125.4 122.9 136.3 110 142 115.6 148.2 121.8" style="fill:none; fill-rule:evenodd; stroke:#000; stroke-miterlimit:10; stroke-width:4px;"/><path d="M129.1,142.4c0,5.8-4.3,10.5-9.7,10.5s-4.8-1-6.5-2.7c-2-1.9-3.2-4.7-3.2-7.8,0-5.8,4.3-10.5,9.7-10.5s4.8,1,6.6,2.8c1.9,1.9,3.1,4.7,3.1,7.7Z" style="fill:none; fill-rule:evenodd; stroke:#000; stroke-miterlimit:10; stroke-width:4px;"/><line x1="138.2" y1="72.4" x2="133.8" y2="77.6" style="fill:none; stroke:#000; stroke-miterlimit:10; stroke-width:5px;"/><line x1="105.7" y1="111" x2="100.6" y2="117.2" style="fill:none; stroke:#000; stroke-miterlimit:10; stroke-width:5px;"/><line x1="87.5" y1="132.7" x2="68.2" y2="155.7" style="fill:none; stroke:#000; stroke-miterlimit:10; stroke-width:4px;"/><line x1="120.8" y1="93.1" x2="116.6" y2="98.1" style="fill:none; stroke:#000; stroke-miterlimit:10; stroke-width:5px;"/><line x1="154.4" y1="53.2" x2="149.1" y2="59.5" style="fill:none; stroke:#000; stroke-miterlimit:10; stroke-width:4px;"/><polygon points="154.8 65.2 143.9 78.1 138.2 72.4 132 66.3 142.9 53.4 149.1 59.5 154.8 65.2" style="fill:none; fill-rule:evenodd; stroke:#000; stroke-miterlimit:10; stroke-width:4px;"/><path d="M136.6,85c0,5.8-4.3,10.5-9.7,10.5s-4.5-.9-6.1-2.4c-2.2-1.9-3.5-4.8-3.5-8.1,0-5.8,4.3-10.5,9.7-10.5s5.1,1.2,6.9,3.1c1.7,1.9,2.8,4.5,2.8,7.4Z" style="fill:none; fill-rule:evenodd; stroke:#000; stroke-miterlimit:10; stroke-width:4px;"/><polygon points="122.8 104.2 111.9 117.1 105.7 111 100 105.3 110.9 92.4 116.6 98.1 122.8 104.2" style="fill:none; fill-rule:evenodd; stroke:#000; stroke-miterlimit:10; stroke-width:4px;"/><path d="M103.7,124.9c0,5.8-4.3,10.5-9.7,10.5s-4.8-1-6.5-2.7c-2-1.9-3.2-4.7-3.2-7.8,0-5.8,4.3-10.5,9.7-10.5s4.8,1,6.6,2.8c1.9,1.9,3.1,4.7,3.1,7.7Z" style="fill:none; fill-rule:evenodd; stroke:#000; stroke-miterlimit:10; stroke-width:4px;"/></g></svg>