<?xml version="1.0" encoding="UTF-8"?><svg id="Lager_2" xmlns="http://www.w3.org/2000/svg" viewBox="0 0 246.2 327.9"><g id="Lager_1-2"><path d="M216.9,170.1h-.4l-94.6,154L29,170.1h-.3C9,135.2-.3,113.9,2.5,96.2,9.5,50.8,59,2,123.1,2c61.7,0,113.5,47.8,120.6,94.2,2.8,18-6.6,39.7-26.8,73.9Z" style="fill:#e5144e; stroke:#060606; stroke-miterlimit:10; stroke-width:4px;"/><path d="M123.1,194.1c-50.7,0-92-38.8-92-86.5S72.4,21.1,123.1,21.1s92,38.8,92,86.5-41.3,86.5-92,86.5Z" style="fill:#e5554e; stroke-width:0px;"/><path d="M123.1,23.1c49.6,0,90,37.9,90,84.5s-40.4,84.5-90,84.5-90-37.9-90-84.5S73.5,23.1,123.1,23.1M123.1,19.1c-51.9,0-94,39.6-94,88.5s42.1,88.5,94,88.5,94-39.6,94-88.5S175,19.1,123.1,19.1h0Z" style="fill:#000; stroke-width:0px;"/><ellipse cx="76.1" cy="106.6" rx="17" ry="15.5" style="fill:none; stroke:#060606; stroke-miterlimit:10; stroke-width:4px;"/><ellipse cx="177.1" cy="107.6" rx="17" ry="15.5" style="fill:none; stroke:#060606; stroke-miterlimit:10; stroke-width:4px;"/><ellipse cx="128.1" cy="107.6" rx="17" ry="15.5" style="fill:none; stroke:#060606; stroke-miterlimit:10; stroke-width:4px;"/></g></svg>