<?xml version="1.0" encoding="UTF-8"?><svg id="Lager_2" xmlns="http://www.w3.org/2000/svg" viewBox="0 0 246.2 327.9"><g id="Lager_1-2"><path d="M216.9,170.1h-.4l-94.6,154L29,170.1h-.3C9,135.2-.3,113.9,2.5,96.2,9.5,50.8,59,2,123.1,2c61.7,0,113.5,47.8,120.6,94.2,2.8,18-6.6,39.7-26.8,73.9Z" style="fill:#4d967b; stroke:#060606; stroke-miterlimit:10; stroke-width:4px;"/><path d="M122.8,198.7c-50.7,0-92-38.8-92-86.5S72.1,25.7,122.8,25.7s92,38.8,92,86.5-41.3,86.5-92,86.5Z" style="fill:#4dbe4e; stroke-width:0px;"/><path d="M122.8,27.7c49.6,0,90,37.9,90,84.5s-40.4,84.5-90,84.5-90-37.9-90-84.5S73.2,27.7,122.8,27.7M122.8,23.7c-51.9,0-94,39.6-94,88.5s42.1,88.5,94,88.5,94-39.6,94-88.5S174.7,23.7,122.8,23.7h0Z" style="fill:#000; stroke-width:0px;"/><path d="M102.8,114.5c-2.5,0-4.5,2.1-4.5,4.6s2,4.6,4.5,4.6,4.5-2.1,4.5-4.6-2-4.6-4.5-4.6h0Z" style="fill:#000; stroke-width:0px;"/><path d="M131,75.8c-2.5,0-4.5,2.1-4.5,4.6s.5,2.4,1.3,3.2c.8.9,2,1.4,3.2,1.4,1.9,0,3.5-1.2,4.2-2.8.2-.6.4-1.2.4-1.8,0-2.6-2-4.6-4.5-4.6h0Z" style="fill:#000; stroke-width:0px;"/><path d="M124.8,105.8c-2.5,0-4.5,2.1-4.5,4.6s2,4.6,4.5,4.6,4.5-2.1,4.5-4.6-2-4.6-4.5-4.6h0Z" style="fill:#000; stroke-width:0px;"/><path d="M140,121.5c-2.5,0-4.5,2.1-4.5,4.6s2,4.6,4.5,4.6,4.5-2.1,4.5-4.6-2-4.6-4.5-4.6h0Z" style="fill:#000; stroke-width:0px;"/><path d="M118,145.7c-2.5,0-4.5,2.1-4.5,4.6s2,4.6,4.5,4.6,4.5-2.1,4.5-4.6-2-4.6-4.5-4.6h0Z" style="fill:#000; stroke-width:0px;"/><path d="M154.1,87.3c-2.5,0-4.5,2.1-4.5,4.6s.5,2.4,1.3,3.2c.8.9,2,1.4,3.2,1.4,1.9,0,3.5-1.2,4.2-2.8.2-.6.4-1.2.4-1.8,0-2.6-2-4.6-4.5-4.6h0Z" style="fill:#000; stroke-width:0px;"/><path d="M107.3,94.3c-2.5,0-4.5,2.1-4.5,4.6s2,4.6,4.5,4.6,4.5-2.1,4.5-4.6-2-4.6-4.5-4.6h0Z" style="fill:#000; stroke-width:0px;"/><path d="M123.6,68.2c9.5,0,27.6,1.9,45.5,14l-45.5,80.7-45.5-80.7c8.9-6,24.7-14,45.5-14M123.6,64.2c-26.4,0-44.7,12.4-50.7,16.8l50.7,90,50.7-90c-21.4-15.9-43.3-16.8-50.7-16.8h0Z" style="fill:#000; stroke-width:0px;"/><path d="M123.4,74.5v4h.2c8.5,0,24.6,1.7,40.7,12.6l-40.5,72.2-40.8-72.4c8-5.3,22-12.4,40.4-12.4v-4M123.4,74.5c-23.8,0-40.3,11.1-45.7,15.2l46.1,81.8,45.7-81.5c-19.4-14.4-39.2-15.4-45.9-15.4,0,0-.1,0-.2,0h0Z" style="fill:#000; stroke-width:0px;"/></g></svg>