<?xml version="1.0" encoding="UTF-8"?><svg id="Lager_2" xmlns="http://www.w3.org/2000/svg" viewBox="0 0 246.2 327.9"><g id="Lager_1-2"><path d="M216.9,170.1h-.4l-94.6,154L29,170.1h-.3C9,135.2-.3,113.9,2.5,96.2,9.5,50.8,59,2,123.1,2c61.7,0,113.5,47.8,120.6,94.2,2.8,18-6.6,39.7-26.8,73.9Z" style="fill:#976c99; stroke:#060606; stroke-miterlimit:10; stroke-width:4px;"/><path d="M123.5,197.6c-50.7,0-92-38.8-92-86.5S72.8,24.6,123.5,24.6s92,38.8,92,86.5-41.3,86.5-92,86.5Z" style="fill:#bf6c99; stroke-width:0px;"/><path d="M123.5,26.6c49.6,0,90,37.9,90,84.5s-40.4,84.5-90,84.5-90-37.9-90-84.5S73.9,26.6,123.5,26.6M123.5,22.6c-51.9,0-94,39.6-94,88.5s42.1,88.5,94,88.5,94-39.6,94-88.5S175.4,22.6,123.5,22.6h0Z" style="fill:#000; stroke-width:0px;"/><path d="M123.8,160.5c-30.3,0-55-22.1-55-49.2s24.7-49.2,55-49.2,55,22.1,55,49.2-24.7,49.2-55,49.2Z" style="fill:#bf6c99; stroke-width:0px;"/><path d="M123.8,64.1c29.2,0,53,21.2,53,47.2s-23.8,47.2-53,47.2-53-21.2-53-47.2,23.8-47.2,53-47.2M123.8,60.1c-31.5,0-57,22.9-57,51.2s25.5,51.2,57,51.2,57-22.9,57-51.2-25.5-51.2-57-51.2h0Z" style="fill:#000; stroke-width:0px;"/><path d="M124.1,129.9c-12,0-21.7-8.4-21.7-18.7s9.7-18.7,21.7-18.7,21.7,8.4,21.7,18.7-9.7,18.7-21.7,18.7Z" style="fill:#bf6c99; stroke-width:0px;"/><path d="M124.1,95c10.6,0,19.2,7.3,19.2,16.2s-8.6,16.2-19.2,16.2-19.2-7.3-19.2-16.2,8.6-16.2,19.2-16.2M124.1,90c-13.4,0-24.2,9.5-24.2,21.2s10.8,21.2,24.2,21.2,24.2-9.5,24.2-21.2-10.8-21.2-24.2-21.2h0Z" style="fill:#000; stroke-width:0px;"/><path d="M77.4,117.2c-.7,2-3.5,10.5.7,17.4,2.8,4.7,7.6,6.5,12.4,8.3,8.2,3.1,10,.7,16.7,3.8,7,3.1,6.3,6.3,13.1,9.1,1.6.6,12.1,4.8,17.4,0,4.4-3.9.9-9.8,5.1-13.6,4.8-4.4,11.4,1.9,19.6-2.3,4.9-2.5,9.1-8,9.4-13.6.4-6.1-4.1-6.9-6.5-15.9-2.5-9.2,1.3-11.6-1.5-19.7-.4-1.2-3.4-9.4-10.9-13.6-7.2-4.1-10.4.2-21.8-2.3-12.3-2.7-13.5-8.7-21.8-7.6-5.9.8-11.9,4.8-15.3,9.8-3,4.4-1.8,6.3-5.1,10.6-4.4,5.7-8.6,5.1-11.6,9.1-2.3,3.1-3.9,8.8,0,20.5Z" style="fill:none; stroke:#000; stroke-miterlimit:10; stroke-width:4px;"/><line x1="92.4" y1="116.6" x2="92.4" y2="119.7" style="fill:none; stroke:#000; stroke-miterlimit:10; stroke-width:5px;"/><line x1="112.8" y1="141.1" x2="116" y2="141.1" style="fill:none; stroke:#000; stroke-miterlimit:10; stroke-width:5px;"/><line x1="158.8" y1="99.4" x2="158.8" y2="101.3" style="fill:none; stroke:#000; stroke-miterlimit:10; stroke-width:5px;"/><line x1="148" y1="84.3" x2="148" y2="86.2" style="fill:none; stroke:#000; stroke-miterlimit:10; stroke-width:5px;"/><line x1="112.8" y1="85.2" x2="112.8" y2="87.1" style="fill:none; stroke:#000; stroke-miterlimit:10; stroke-width:5px;"/><line x1="155" y1="128.9" x2="155" y2="130.8" style="fill:none; stroke:#000; stroke-miterlimit:10; stroke-width:5px;"/><line x1="130.8" y1="147.1" x2="130.8" y2="149" style="fill:none; stroke:#000; stroke-miterlimit:10; stroke-width:5px;"/><line x1="102.6" y1="104" x2="102.6" y2="105.9" style="fill:none; stroke:#000; stroke-miterlimit:10; stroke-width:5px;"/><line x1="116" y1="75.8" x2="116" y2="77.7" style="fill:none; stroke:#000; stroke-miterlimit:10; stroke-width:5px;"/><line x1="167.7" y1="123.9" x2="167.7" y2="125.8" style="fill:none; stroke:#000; stroke-miterlimit:10; stroke-width:5px;"/><line x1="92.4" y1="138.6" x2="92.4" y2="136.1" style="fill:none; stroke:#000; stroke-miterlimit:10; stroke-width:5px;"/><line x1="102.6" y1="82.7" x2="102.6" y2="80.2" style="fill:none; stroke:#000; stroke-miterlimit:10; stroke-width:5px;"/><line x1="148" y1="96.3" x2="148" y2="93.8" style="fill:none; stroke:#000; stroke-miterlimit:10; stroke-width:5px;"/></g></svg>