<?xml version="1.0" encoding="UTF-8"?><svg id="Lager_2" xmlns="http://www.w3.org/2000/svg" viewBox="0 0 333 306"><g id="Lager_1-2"><path d="M166.5,302c-89.6,0-162.5-66.8-162.5-149S76.9,4,166.5,4s162.5,66.8,162.5,149-72.9,149-162.5,149Z" style="fill:#007ebf; stroke-width:0px;"/><path d="M166.5,8c42.5,0,82.4,15.2,112.3,42.7,29.8,27.4,46.2,63.7,46.2,102.3s-16.4,74.9-46.2,102.3c-30,27.5-69.9,42.7-112.3,42.7s-82.4-15.2-112.3-42.7c-29.8-27.4-46.2-63.7-46.2-102.3S24.4,78.1,54.2,50.7C84.1,23.2,124,8,166.5,8M166.5,0C74.5,0,0,68.5,0,153s74.5,153,166.5,153,166.5-68.5,166.5-153S258.5,0,166.5,0h0Z" style="fill:#000; stroke-width:0px;"/><line x1="239.2" y1="115.5" x2="231.3" y2="124.5" style="fill:none; stroke:#000; stroke-miterlimit:10; stroke-width:5px;"/><line x1="180.9" y1="182.4" x2="171.6" y2="193.1" style="fill:none; stroke:#000; stroke-miterlimit:10; stroke-width:5px;"/><line x1="148.2" y1="220.1" x2="113.5" y2="260" style="fill:none; stroke:#000; stroke-miterlimit:10; stroke-width:5px;"/><line x1="207.9" y1="151.4" x2="200.4" y2="160" style="fill:none; stroke:#000; stroke-miterlimit:10; stroke-width:5px;"/><line x1="268.2" y1="82" x2="258.7" y2="93" style="fill:none; stroke:#000; stroke-miterlimit:10; stroke-width:5px;"/><polygon points="269 102.9 249.4 125.3 239.2 115.5 228.1 104.8 247.7 82.4 258.7 93 269 102.9" style="fill:none; fill-rule:evenodd; stroke:#000; stroke-miterlimit:10; stroke-width:5px;"/><path d="M236.4,137.3c0,10.1-7.8,18.2-17.4,18.2s-8-1.6-11-4.1c-3.9-3.3-6.4-8.4-6.4-14.1,0-10.1,7.8-18.2,17.4-18.2s9.2,2.1,12.3,5.4c3.1,3.3,5,7.8,5,12.8Z" style="fill:none; fill-rule:evenodd; stroke:#000; stroke-miterlimit:10; stroke-width:5px;"/><polygon points="211.6 170.7 192 193.1 180.9 182.4 170.6 172.6 190.2 150.2 200.4 160 211.6 170.7" style="fill:none; fill-rule:evenodd; stroke:#000; stroke-miterlimit:10; stroke-width:5px;"/><path d="M177.2,206.5c0,10.1-7.8,18.2-17.4,18.2s-8.6-1.8-11.6-4.7c-3.5-3.3-5.7-8.2-5.7-13.5,0-10.1,7.8-18.2,17.4-18.2s8.7,1.8,11.8,4.8c3.5,3.3,5.6,8.1,5.6,13.4Z" style="fill:none; fill-rule:evenodd; stroke:#000; stroke-miterlimit:10; stroke-width:5px;"/><line x1="193.6" y1="85" x2="185.7" y2="94" style="fill:none; stroke:#000; stroke-miterlimit:10; stroke-width:5px;"/><line x1="135.3" y1="152" x2="126" y2="162.7" style="fill:none; stroke:#000; stroke-miterlimit:10; stroke-width:5px;"/><line x1="102.6" y1="189.6" x2="67.9" y2="229.5" style="fill:none; stroke:#000; stroke-miterlimit:10; stroke-width:5px;"/><line x1="162.4" y1="120.9" x2="154.9" y2="129.5" style="fill:none; stroke:#000; stroke-miterlimit:10; stroke-width:5px;"/><line x1="222.7" y1="51.5" x2="213.1" y2="62.6" style="fill:none; stroke:#000; stroke-miterlimit:10; stroke-width:5px;"/><polygon points="223.4 72.5 203.8 94.9 193.6 85 182.5 74.3 202.1 52 213.1 62.6 223.4 72.5" style="fill:none; fill-rule:evenodd; stroke:#000; stroke-miterlimit:10; stroke-width:5px;"/><path d="M190.8,106.8c0,10.1-7.8,18.2-17.4,18.2s-8-1.6-11-4.1c-3.9-3.3-6.4-8.4-6.4-14.1,0-10.1,7.8-18.2,17.4-18.2s9.2,2.1,12.3,5.4c3.1,3.3,5,7.8,5,12.8Z" style="fill:none; fill-rule:evenodd; stroke:#000; stroke-miterlimit:10; stroke-width:5px;"/><polygon points="166 140.2 146.4 162.6 135.3 152 125.1 142.1 144.6 119.7 154.9 129.5 166 140.2" style="fill:none; fill-rule:evenodd; stroke:#000; stroke-miterlimit:10; stroke-width:5px;"/><path d="M131.7,176.1c0,10.1-7.8,18.2-17.4,18.2s-8.6-1.8-11.6-4.7c-3.5-3.3-5.7-8.2-5.7-13.5,0-10.1,7.8-18.2,17.4-18.2s8.7,1.8,11.8,4.8c3.5,3.3,5.6,8.1,5.6,13.4Z" style="fill:none; fill-rule:evenodd; stroke:#000; stroke-miterlimit:10; stroke-width:5px;"/></g></svg>