<?xml version="1.0" encoding="UTF-8"?><svg id="Lager_2" xmlns="http://www.w3.org/2000/svg" viewBox="0 0 329 308.9"><g id="Lager_1-2"><path d="M164.5,304.9c-88.5,0-160.5-67.5-160.5-150.4S76,4,164.5,4s160.5,67.5,160.5,150.4-72,150.4-160.5,150.4Z" style="fill:#e5554e; stroke-width:0px;"/><path d="M164.5,8c41.9,0,81.3,15.3,110.8,43.1,29.4,27.6,45.7,64.4,45.7,103.4s-16.2,75.7-45.7,103.4c-29.6,27.8-68.9,43.1-110.8,43.1s-81.3-15.3-110.8-43.1c-29.4-27.6-45.7-64.4-45.7-103.4S24.2,78.7,53.7,51.1C83.2,23.3,122.6,8,164.5,8M164.5,0C73.6,0,0,69.1,0,154.4s73.6,154.4,164.5,154.4,164.5-69.1,164.5-154.4S255.4,0,164.5,0h0Z" style="fill:#000; stroke-width:0px;"/><ellipse cx="92.5" cy="154.4" rx="21.3" ry="23" style="fill:none; stroke:#000; stroke-miterlimit:10; stroke-width:9px;"/><ellipse cx="236.5" cy="154.4" rx="21.3" ry="23" style="fill:none; stroke:#000; stroke-miterlimit:10; stroke-width:9px;"/><ellipse cx="165.5" cy="154.4" rx="21.3" ry="23" style="fill:none; stroke:#000; stroke-miterlimit:10; stroke-width:9px;"/></g></svg>