<?xml version="1.0" encoding="UTF-8"?><svg id="Lager_2" xmlns="http://www.w3.org/2000/svg" viewBox="0 0 333 306"><g id="Lager_1-2"><path d="M166.5,302c-89.6,0-162.5-66.8-162.5-149S76.9,4,166.5,4s162.5,66.8,162.5,149-72.9,149-162.5,149Z" style="fill:#bf6c99; stroke-width:0px;"/><path d="M166.5,8c42.5,0,82.3,15.2,112.3,42.7,29.8,27.4,46.2,63.7,46.2,102.3s-16.4,74.9-46.2,102.3c-30,27.5-69.9,42.7-112.3,42.7s-82.4-15.2-112.3-42.7c-29.8-27.4-46.2-63.7-46.2-102.3S24.4,78.1,54.2,50.7C84.1,23.2,124,8,166.5,8M166.5,0C74.5,0,0,68.5,0,153s74.5,153,166.5,153,166.5-68.5,166.5-153S258.5,0,166.5,0h0Z" style="fill:#000; stroke-width:0px;"/><path d="M167,239.5c-54.3,0-98.5-38.6-98.5-86s44.2-86,98.5-86,98.5,38.6,98.5,86-44.2,86-98.5,86Z" style="fill:#bf6c99; stroke-width:0px;"/><path d="M167,70c52.9,0,96,37.5,96,83.5s-43.1,83.5-96,83.5-96-37.5-96-83.5,43.1-83.5,96-83.5M167,65c-55.8,0-101,39.6-101,88.5s45.2,88.5,101,88.5,101-39.6,101-88.5-45.2-88.5-101-88.5h0Z" style="fill:#000; stroke-width:0px;"/><path d="M167.6,187.4c-22.3,0-40.4-15.3-40.4-34.1s18.1-34.2,40.4-34.2,40.4,15.3,40.4,34.2-18.1,34.1-40.4,34.1Z" style="fill:#bf6c99; stroke-width:0px;"/><path d="M167.6,121.6c20.9,0,37.9,14.2,37.9,31.6s-17,31.6-37.9,31.6-37.9-14.2-37.9-31.6,17-31.7,37.9-31.7M167.6,116.6c-23.7,0-42.9,16.4-42.9,36.7s19.2,36.6,42.9,36.6,42.9-16.4,42.9-36.6-19.2-36.7-42.9-36.7h0Z" style="fill:#000; stroke-width:0px;"/><path d="M84.8,163.6c-1.2,3.5-6.1,18.2,1.3,30.1,5,8.1,13.4,11.2,21.9,14.4,14.6,5.4,17.7,1.3,29.6,6.6,12.3,5.4,11.2,10.9,23.2,15.7,2.8,1.1,21.4,8.4,30.9,0,7.7-6.8,1.7-17,9-23.6,8.6-7.6,20.2,3.2,34.8-3.9,8.7-4.3,16.1-13.9,16.7-23.6.7-10.5-7.3-12-11.6-27.5-4.4-15.9,2.4-20.1-2.6-34.1-.7-2.1-6-16.2-19.3-23.6-12.8-7.1-18.5.3-38.6-3.9-21.8-4.6-24-15.1-38.6-13.1-10.5,1.4-21,8.4-27,17-5.3,7.6-3.2,10.9-9,18.3-7.8,9.9-15.2,8.8-20.6,15.7-4.1,5.4-6.8,15.3,0,35.4h0Z" style="fill:none; stroke:#000; stroke-miterlimit:10; stroke-width:5px;"/><line x1="106.1" y1="155.7" x2="106.1" y2="161.1" style="fill:none; stroke:#000; stroke-miterlimit:10; stroke-width:5px;"/><line x1="142.2" y1="198" x2="147.8" y2="198" style="fill:none; stroke:#000; stroke-miterlimit:10; stroke-width:5px;"/><line x1="229.1" y1="132.9" x2="229.1" y2="136.1" style="fill:none; stroke:#000; stroke-miterlimit:10; stroke-width:5px;"/><line x1="209.9" y1="106.8" x2="209.9" y2="110.1" style="fill:none; stroke:#000; stroke-miterlimit:10; stroke-width:5px;"/><line x1="142.2" y1="101.4" x2="142.2" y2="104.6" style="fill:none; stroke:#000; stroke-miterlimit:10; stroke-width:5px;"/><line x1="222.3" y1="183.9" x2="222.3" y2="187.2" style="fill:none; stroke:#000; stroke-miterlimit:10; stroke-width:5px;"/><line x1="179.4" y1="215.4" x2="179.4" y2="218.6" style="fill:none; stroke:#000; stroke-miterlimit:10; stroke-width:5px;"/><line x1="124.1" y1="133.9" x2="124.1" y2="137.2" style="fill:none; stroke:#000; stroke-miterlimit:10; stroke-width:5px;"/><line x1="147.8" y1="85.1" x2="147.8" y2="88.3" style="fill:none; stroke:#000; stroke-miterlimit:10; stroke-width:5px;"/><line x1="244.9" y1="175.2" x2="244.9" y2="178.5" style="fill:none; stroke:#000; stroke-miterlimit:10; stroke-width:5px;"/><line x1="106.1" y1="193.7" x2="106.1" y2="189.3" style="fill:none; stroke:#000; stroke-miterlimit:10; stroke-width:5px;"/><line x1="124.1" y1="97" x2="124.1" y2="92.7" style="fill:none; stroke:#000; stroke-miterlimit:10; stroke-width:5px;"/><line x1="209.9" y1="127.4" x2="209.9" y2="123.1" style="fill:none; stroke:#000; stroke-miterlimit:10; stroke-width:5px;"/></g></svg>