<?xml version="1.0" encoding="UTF-8"?><svg id="Lager_2" xmlns="http://www.w3.org/2000/svg" viewBox="0 0 333 306"><g id="Lager_1-2"><path d="M166.5,302c-89.6,0-162.5-66.8-162.5-149S76.9,4,166.5,4s162.5,66.8,162.5,149-72.9,149-162.5,149Z" style="fill:#4db44e; stroke-width:0px;"/><path d="M166.5,8c42.5,0,82.4,15.2,112.3,42.7,29.8,27.4,46.2,63.7,46.2,102.3s-16.4,74.9-46.2,102.3c-30,27.5-69.9,42.7-112.3,42.7s-82.4-15.2-112.3-42.7c-29.8-27.4-46.2-63.7-46.2-102.3S24.4,78.1,54.2,50.7C84.1,23.2,124,8,166.5,8M166.5,0C74.5,0,0,68.5,0,153s74.5,153,166.5,153,166.5-68.5,166.5-153S258.5,0,166.5,0h0Z" style="fill:#000; stroke-width:0px;"/><path d="M131,165h0s0,0,0,0M131,157c-4.4,0-8,3.6-8,8s3.6,8,8,8,8-3.6,8-8-3.6-8-8-8h0Z" style="fill:#000; stroke-width:0px;"/><path d="M181,98h0s0,0,0,0M181,90c-4.4,0-8,3.6-8,8s.9,4.1,2.3,5.6c1.4,1.5,3.5,2.4,5.7,2.4,3.3,0,6.1-2,7.4-4.9.4-1,.6-2,.6-3.1,0-4.4-3.6-8-8-8h0Z" style="fill:#000; stroke-width:0px;"/><path d="M170,150h0s0,0,0,0M170,142c-4.4,0-8,3.6-8,8s3.6,8,8,8,8-3.6,8-8-3.6-8-8-8h0Z" style="fill:#000; stroke-width:0px;"/><path d="M197,177h0s0,0,0,0M197,169c-4.4,0-8,3.6-8,8s3.6,8,8,8,8-3.6,8-8-3.6-8-8-8h0Z" style="fill:#000; stroke-width:0px;"/><path d="M158,219h0s0,0,0,0M158,211c-4.4,0-8,3.6-8,8s3.6,8,8,8,8-3.6,8-8-3.6-8-8-8h0Z" style="fill:#000; stroke-width:0px;"/><path d="M222,118h0s0,0,0,0M222,110c-4.4,0-8,3.6-8,8s.9,4.1,2.3,5.6c1.4,1.5,3.5,2.4,5.7,2.4,3.3,0,6.1-2,7.4-4.9.4-1,.6-2,.6-3.1,0-4.4-3.6-8-8-8h0Z" style="fill:#000; stroke-width:0px;"/><path d="M139,130h0s0,0,0,0M139,122c-4.4,0-8,3.6-8,8s3.6,8,8,8,8-3.6,8-8-3.6-8-8-8h0Z" style="fill:#000; stroke-width:0px;"/><path d="M168,75c17.3,0,50.6,3.4,83.3,25.6l-83.3,144.2L84.8,100.6c15.7-10.6,44.7-25.6,83.2-25.6M168,70c-46.8,0-79.2,21.4-89.9,29.1l89.9,155.7,89.9-155.7c-37.9-27.4-76.7-29.1-89.9-29.1h0Z" style="fill:#000; stroke-width:0px;"/><path d="M167.5,87.8v5h.3c15.5,0,45.3,3.1,74.8,23l-74.4,129.5L93.2,115.5c14.1-9.5,40-22.7,74.3-22.7v-5M167.5,87.8c-42.1,0-71.3,19.3-80.9,26.2l81.6,141.3,81-141c-34.3-24.9-69.5-26.6-81.4-26.6-.1,0-.2,0-.3,0h0Z" style="fill:#000; stroke-width:0px;"/></g></svg>