<?xml version="1.0" encoding="UTF-8"?><svg xmlns="http://www.w3.org/2000/svg" viewBox="0 0 1367 768"><g id="Lager_1"><g style="opacity:.5;"><rect x="1" y=".5" width="1365" height="767" style="fill:#bfe6ff; stroke-width:0px;"/><path d="M1365.5,1v766H1.5V1h1364M1366.5,0H.5v768h1366V0h0Z" style="fill:#000; stroke-width:0px;"/></g><line x1="0" y1="69.5" x2="1367" y2="66.5" style="fill:none; stroke:#d1922e; stroke-miterlimit:10; stroke-width:4px;"/><line x1=".5" y1="200" x2="1366.5" y2="201" style="fill:none; stroke:#d1922e; stroke-miterlimit:10; stroke-width:4px;"/><line x1=".5" y1="347" x2="1366.5" y2="346" style="fill:none; stroke:#d1922e; stroke-miterlimit:10; stroke-width:4px;"/><line x1=".5" y1="491" x2="1366.5" y2="492" style="fill:none; stroke:#d1922e; stroke-miterlimit:10; stroke-width:4px;"/><line x1=".5" y1="628" x2="1366.5" y2="630" style="fill:none; stroke:#d1922e; stroke-miterlimit:10; stroke-width:4px;"/><rect x="36.5" width="24" height="768" style="fill:#899e1d; stroke-width:0px;"/><rect x="122.5" width="24" height="768" style="fill:#899e1d; stroke-width:0px;"/><rect x="210.5" width="24" height="768" style="fill:#899e1d; stroke-width:0px;"/><rect x="396.5" width="24" height="768" style="fill:#899e1d; stroke-width:0px;"/><rect x="487.5" width="24" height="768" style="fill:#899e1d; stroke-width:0px;"/><rect x="579.5" width="24" height="768" style="fill:#899e1d; stroke-width:0px;"/><rect x="773.5" width="24" height="768" style="fill:#899e1d; stroke-width:0px;"/><rect x="862.5" width="24" height="768" style="fill:#899e1d; stroke-width:0px;"/><rect x="951.5" width="24" height="768" style="fill:#899e1d; stroke-width:0px;"/><rect x="1144.5" width="24" height="768" style="fill:#899e1d; stroke-width:0px;"/><rect x="1235.5" width="24" height="768" style="fill:#899e1d; stroke-width:0px;"/><rect x="1324.5" width="24" height="768" style="fill:#899e1d; stroke-width:0px;"/><line x1=".5" y1="111" x2="1366.5" y2="109" style="fill:none; stroke:#d1922e; stroke-miterlimit:10; stroke-width:4px;"/><line x1=".5" y1="240" x2="1366.5" y2="240" style="fill:none; stroke:#d1922e; stroke-miterlimit:10; stroke-width:4px;"/><line x1=".5" y1="396" x2="1366.5" y2="395" style="fill:none; stroke:#d1922e; stroke-miterlimit:10; stroke-width:4px;"/><line x1=".5" y1="536" x2="1366.5" y2="534" style="fill:none; stroke:#d1922e; stroke-miterlimit:10; stroke-width:4px;"/><line x1=".5" y1="683" x2="1366.5" y2="686" style="fill:none; stroke:#d1922e; stroke-miterlimit:10; stroke-width:4px;"/></g><g id="Lager_2"><path d="M649.5,160.3c-2.5,0-4.9,0-7.4,0h6c.5,0,.9,0,1.4,0Z" style="fill:#e6e6e6; stroke-width:0px;"/><path d="M648.1,160.3h-6c2.5,0,4.9,0,7.4,0-.5,0-.9,0-1.4,0h0Z" style="fill:#000; stroke-width:0px;"/><path d="M529.4,215.3c-1.1,0-2.2,0-3.3-.1h-.2s-.2,0-.2,0c-.6,0-1.3.1-2,.1h-69.9c-4.1,0-7.9-1.6-10.8-4.5-2.9-2.9-4.5-6.8-4.5-11,0-8.6,6.8-15.5,15.3-15.5h37.4l-.4-2.3c-.3-2.1-.5-4.2-.5-6.4v-5.3h-36.5c-4.1,0-7.9-1.6-10.8-4.5-2.9-2.9-4.5-6.8-4.5-11,0-8.6,6.8-15.5,15.3-15.5h36.5v-5.3c0-2.1.2-4.3.5-6.4l.4-2.3h-37.4c-4.1,0-7.9-1.6-10.8-4.5-2.9-2.9-4.5-6.8-4.5-11,0-8.6,6.8-15.5,15.3-15.5h69.9c.7,0,1.3,0,2,.1h.2s.2,0,.2,0c1.1,0,2.2-.1,3.3-.1,21.6,0,39.1,17.8,39.1,39.8v7.8h364c4.8,0,9.4,1.9,12.8,5.4,3.4,3.5,5.3,8.1,5.3,13.1,0,10.2-8.1,18.5-18.1,18.5h-364.1l-.2,1.8c-2.3,19.9-19,35-38.8,35Z" style="fill:#ecebff; stroke-width:0px;"/><path d="M529.4,96c20.5,0,37.1,16.9,37.1,37.8v9.8h366c4.3,0,8.3,1.7,11.4,4.8,3.1,3.1,4.7,7.2,4.7,11.7,0,9.1-7.2,16.5-16.1,16.5h-365.9l-.4,3.5c-2.2,18.9-18.1,33.2-36.8,33.2s-2.1,0-3.1-.1h-.4s-.4,0-.4,0c-.6,0-1.1.1-1.7.1h-69.9c-3.5,0-6.9-1.4-9.4-3.9-2.5-2.6-3.9-6-3.9-9.6,0-7.5,5.9-13.5,13.3-13.5h39.7l-.7-4.6c-.3-2-.5-4-.5-6.1v-7.3h-38.5c-3.5,0-6.9-1.4-9.4-3.9-2.5-2.6-3.9-6-3.9-9.6,0-7.5,5.9-13.5,13.3-13.5h38.5v-7.3c0-2,.2-4.1.5-6.1l.7-4.6h-39.7c-3.5,0-6.9-1.4-9.4-3.9-2.5-2.6-3.9-6-3.9-9.6,0-7.5,5.9-13.5,13.3-13.5h69.9c.6,0,1.2,0,1.7.1h.4c0,0,.4,0,.4,0,1,0,2.1-.1,3.1-.1M529.4,92c-1.2,0-2.3,0-3.5.2-.7-.1-1.5-.2-2.3-.2h-69.9c-9.5,0-17.3,7.9-17.3,17.5s1.9,9.2,5.1,12.4c3.1,3.2,7.4,5.1,12.2,5.1h35c-.3,2.2-.5,4.4-.5,6.7v3.3h-34.5c-9.5,0-17.3,7.9-17.3,17.5s1.9,9.2,5.1,12.4c3.1,3.2,7.4,5.1,12.2,5.1h34.5v3.3c0,2.3.2,4.5.5,6.7h-35c-9.5,0-17.3,7.9-17.3,17.5s1.9,9.2,5.1,12.4c3.1,3.2,7.4,5.1,12.2,5.1h69.9c.8,0,1.5,0,2.3-.2,1.2.1,2.3.2,3.5.2,21,0,38.4-16.1,40.8-36.8h362.3c11.1,0,20.1-9.2,20.1-20.5s-2.3-10.8-5.9-14.5c-3.6-3.7-8.7-6-14.2-6h-362v-5.8c0-23.1-18.4-41.8-41.1-41.8h0Z" style="fill:#000; stroke-width:0px;"/><path d="M825.7,93c-57.6,0-108.6-10.3-121.3-24.5l-.6-.7h-246.4c-9.3,0-16.9-8-16.9-17.9s1.8-9.3,5-12.7c3.2-3.4,7.4-5.2,11.9-5.2h368.3c1.9,0,3.8,0,5.7,0,32.3.4,62.4,3.9,84.7,9.9,21.3,5.7,33.6,13.2,33.6,20.6,0,14.7-49.8,30.5-124,30.5Z" style="fill:#efebff; stroke-width:0px;"/><path d="M825.7,34c2.1,0,4,0,5.6,0,32.1.4,62,3.9,84.2,9.8,23.7,6.4,32.1,13.8,32.1,18.6s-8.9,12.7-33.9,19.1c-23.5,6.1-54.8,9.4-88.1,9.4s-56.2-2.5-78.2-7.1c-20.8-4.3-36-10.4-41.6-16.8l-1.2-1.3h-247.3c-8.2,0-14.9-7.1-14.9-15.9s1.6-8.3,4.4-11.3c2.8-3,6.5-4.6,10.4-4.6h368.3M825.7,30h-368.3c-5.2,0-9.9,2.2-13.3,5.8-3.4,3.6-5.5,8.6-5.5,14.1,0,11,8.5,19.9,18.9,19.9h245.5c12.9,14.4,62.9,25.2,122.8,25.2s126-14.6,126-32.5-53.3-31.7-120.3-32.5c-1.9,0-3.8,0-5.7,0h0Z" style="fill:#000; stroke-width:0px;"/></g></svg>