<?xml version="1.0" encoding="UTF-8"?><svg xmlns="http://www.w3.org/2000/svg" viewBox="0 0 1367 768"><g id="Lager_1"><g style="opacity:.5;"><rect x="1" y=".5" width="1365" height="767" style="fill:#bfe6ff; stroke-width:0px;"/><path d="M1365.5,1v766H1.5V1h1364M1366.5,0H.5v768h1366V0h0Z" style="fill:#000; stroke-width:0px;"/></g><line x1="0" y1="69.5" x2="1367" y2="66.5" style="fill:none; stroke:#d1922e; stroke-miterlimit:10; stroke-width:4px;"/><line x1=".5" y1="200" x2="1366.5" y2="201" style="fill:none; stroke:#d1922e; stroke-miterlimit:10; stroke-width:4px;"/><line x1=".5" y1="347" x2="1366.5" y2="346" style="fill:none; stroke:#d1922e; stroke-miterlimit:10; stroke-width:4px;"/><line x1=".5" y1="491" x2="1366.5" y2="492" style="fill:none; stroke:#d1922e; stroke-miterlimit:10; stroke-width:4px;"/><line x1=".5" y1="628" x2="1366.5" y2="630" style="fill:none; stroke:#d1922e; stroke-miterlimit:10; stroke-width:4px;"/><rect x="36.5" width="24" height="768" style="fill:#899e1d; stroke-width:0px;"/><rect x="122.5" width="24" height="768" style="fill:#899e1d; stroke-width:0px;"/><rect x="210.5" width="24" height="768" style="fill:#899e1d; stroke-width:0px;"/><rect x="396.5" width="24" height="768" style="fill:#899e1d; stroke-width:0px;"/><rect x="487.5" width="24" height="768" style="fill:#899e1d; stroke-width:0px;"/><rect x="579.5" width="24" height="768" style="fill:#899e1d; stroke-width:0px;"/><rect x="773.5" width="24" height="768" style="fill:#899e1d; stroke-width:0px;"/><rect x="862.5" width="24" height="768" style="fill:#899e1d; stroke-width:0px;"/><rect x="951.5" width="24" height="768" style="fill:#899e1d; stroke-width:0px;"/><rect x="1144.5" width="24" height="768" style="fill:#899e1d; stroke-width:0px;"/><rect x="1235.5" width="24" height="768" style="fill:#899e1d; stroke-width:0px;"/><rect x="1324.5" width="24" height="768" style="fill:#899e1d; stroke-width:0px;"/><line x1=".5" y1="111" x2="1366.5" y2="109" style="fill:none; stroke:#d1922e; stroke-miterlimit:10; stroke-width:4px;"/><line x1=".5" y1="240" x2="1366.5" y2="240" style="fill:none; stroke:#d1922e; stroke-miterlimit:10; stroke-width:4px;"/><line x1=".5" y1="396" x2="1366.5" y2="395" style="fill:none; stroke:#d1922e; stroke-miterlimit:10; stroke-width:4px;"/><line x1=".5" y1="536" x2="1366.5" y2="534" style="fill:none; stroke:#d1922e; stroke-miterlimit:10; stroke-width:4px;"/><line x1=".5" y1="683" x2="1366.5" y2="686" style="fill:none; stroke:#d1922e; stroke-miterlimit:10; stroke-width:4px;"/></g><g id="Lager_2"><path d="M649.5,160.3c-2.5,0-4.9,0-7.4,0h6c.5,0,.9,0,1.4,0Z" style="fill:#e6e6e6; stroke-width:0px;"/><path d="M648.1,160.3h-6c2.5,0,4.9,0,7.4,0-.5,0-.9,0-1.4,0h0Z" style="fill:#000; stroke-width:0px;"/></g></svg>