<?xml version="1.0" encoding="UTF-8"?><svg id="Lager_1" xmlns="http://www.w3.org/2000/svg" viewBox="0 0 117.2 120.9"><path d="M19.3,55.5c5.6-.4,10.8,1.2,15.9,1.2,6,10,12.9,19.2,19.6,28.4" style="fill:none; stroke:#000; stroke-miterlimit:10; stroke-width:3px;"/><line x1="19.3" y1="55.5" x2="1.3" y2="18.5" style="fill:none; stroke:#000; stroke-miterlimit:10; stroke-width:3px;"/><path d="M58.1,35.2c-3.2,4.6-4.5,9.7-7.1,14.1,5.3,10.1,9.6,20.6,13.9,30.7" style="fill:none; stroke:#000; stroke-miterlimit:10; stroke-width:3px;"/><line x1="58.1" y1="35.2" x2="35.5" y2=".8" style="fill:none; stroke:#000; stroke-miterlimit:10; stroke-width:3px;"/><line x1="10.3" y1="15.5" x2="24.3" y2="40.5" style="fill:none; stroke:#000; stroke-miterlimit:10; stroke-width:3px;"/><line x1="29.3" y1="6.5" x2="43.3" y2="31.5" style="fill:none; stroke:#000; stroke-miterlimit:10; stroke-width:3px;"/><line x1="19.3" y1="11.5" x2="34.3" y2="35.5" style="fill:none; stroke:#000; stroke-miterlimit:10; stroke-width:3px;"/><path d="M66.2,74.5h0c-1.8.6-3.6,1.1-5.5,1.6,15.9-23.3,31.8-46.7,47.6-70,4.6,6.6,6.4,12.2,7,16.5,3.1,20.9-16.5,41.3-49.2,51.9Z" style="fill:none; stroke:#000; stroke-miterlimit:10; stroke-width:3px;"/><line x1="66.2" y1="74.5" x2="34.1" y2="116.1" style="fill:none; stroke:#000; stroke-miterlimit:10; stroke-width:11px;"/><line x1="71.3" y1="68.2" x2="66.2" y2="74.5" style="fill:none; stroke:#000; stroke-miterlimit:10; stroke-width:11px;"/><line x1="56.8" y1="89" x2="75.8" y2="120" style="fill:none; stroke:#000; stroke-miterlimit:10; stroke-width:2px;"/><line x1="66.8" y1="82" x2="87.8" y2="112" style="fill:none; stroke:#000; stroke-miterlimit:10; stroke-width:2px;"/><line x1="87.8" y1="112" x2="75.8" y2="120" style="fill:none; stroke:#000; stroke-miterlimit:10; stroke-width:2px;"/></svg>