<?xml version="1.0" encoding="UTF-8"?><svg id="Lager_1" xmlns="http://www.w3.org/2000/svg" viewBox="0 0 268 240.7"><path d="M134.5,238.7c-10.4,0-19.7-3.9-25.7-10.8L21,126.8c-.9-1.1-1.8-2.2-2.6-3.5h0c0-.1,0-.2,0-.2C7.8,109.8,2,92.9,2,75.4,2,34.9,32.5,2,70,2s50.6,16.7,61.7,42.5l1.8,4.3,1.8-4.2c11.2-25.8,35.6-42.5,62.1-42.5,37.8,0,68.5,32.9,68.5,73.4s-4.6,30.8-13.3,43.5v.2c-.1,0-.2.2-.2.2-1,2.6-2.5,5.1-4.5,7.5l-87.8,101.1c-6,6.9-15.3,10.8-25.7,10.8Z" style="fill:#ce4021; stroke-width:0px;"/><path d="M197.5,4c36.7,0,66.5,32,66.5,71.4s-4.5,30-13,42.3l-.3.4-.2.5c-.9,2.4-2.3,4.7-4.1,6.8l-87.8,101.1c-5.6,6.4-14.4,10.1-24.2,10.1s-18.6-3.7-24.2-10.1L22.5,125.5c-.9-1-1.7-2.1-2.4-3.2v-.2c-.1,0-.3-.2-.3-.2-10.3-12.9-15.9-29.4-15.9-46.5C4,36,33.6,4,70,4s25.2,4,35.9,11.4c10.5,7.3,18.7,17.6,24,29.8l3.7,8.5,3.7-8.5c5.3-12.2,13.6-22.5,24.2-29.8,10.8-7.5,23.3-11.5,36.1-11.5M197.5,0c-28.3,0-52.8,17.9-64,43.7C122.4,17.9,98.2,0,70,0S0,33.8,0,75.4s6.3,35.8,16.8,49c.8,1.3,1.7,2.5,2.8,3.7l87.8,101.1c6.7,7.7,16.9,11.5,27.2,11.5s20.5-3.8,27.2-11.5l87.8-101.1c2.2-2.6,3.9-5.3,4.9-8.1,8.6-12.5,13.7-27.9,13.7-44.6C268,33.8,236.4,0,197.5,0h0Z" style="fill:#000; stroke-width:0px;"/></svg>