<?xml version="1.0" encoding="UTF-8"?>
<svg id="Lager_1" data-name="Lager 1" xmlns="http://www.w3.org/2000/svg" viewBox="0 0 331 168.34">
  <text transform="translate(0 129.34)" style="fill: #000; font-family: 18thCentury, 18thCentury; font-size: 110px;"><tspan x="0" y="0">GetFood</tspan></text>
  <path d="M190.5,60.99c5.6-.38,10.77,1.15,15.94,1.15,6.03,10.01,12.93,19.25,19.56,28.36" style="fill: none; stroke: #000; stroke-miterlimit: 10; stroke-width: 3px;"/>
  <line x1="190.5" y1="61.01" x2="172.5" y2="24.01" style="fill: none; stroke: #000; stroke-miterlimit: 10; stroke-width: 3px;"/>
  <path d="M229.22,40.68c-3.15,4.57-4.47,9.72-7.08,14.11,5.33,10.1,9.58,20.55,13.86,30.72" style="fill: none; stroke: #000; stroke-miterlimit: 10; stroke-width: 3px;"/>
  <line x1="229.24" y1="40.69" x2="206.64" y2="6.31" style="fill: none; stroke: #000; stroke-miterlimit: 10; stroke-width: 3px;"/>
  <line x1="181.5" y1="21.01" x2="195.5" y2="46.01" style="fill: none; stroke: #000; stroke-miterlimit: 10; stroke-width: 3px;"/>
  <line x1="200.5" y1="12.01" x2="214.5" y2="37.01" style="fill: none; stroke: #000; stroke-miterlimit: 10; stroke-width: 3px;"/>
  <line x1="190.5" y1="17.01" x2="205.5" y2="41.01" style="fill: none; stroke: #000; stroke-miterlimit: 10; stroke-width: 3px;"/>
  <path d="M271.36,71.01h-.01c-1.79.57-3.61,1.12-5.48,1.64,15.87-23.34,31.75-46.67,47.63-70.01,4.61,6.58,6.38,12.19,7.01,16.49,3.06,20.92-16.48,41.33-49.15,51.88Z" style="fill: none; stroke: #000; stroke-miterlimit: 10; stroke-width: 3px;"/>
  <line x1="271.35" y1="71.01" x2="255.5" y2="90.64" style="fill: none; stroke: #000; stroke-miterlimit: 10; stroke-width: 11px;"/>
  <line x1="276.5" y1="64.64" x2="271.36" y2="71.01" style="fill: none; stroke: #000; stroke-miterlimit: 10; stroke-width: 11px;"/>
  <line x1="207.5" y1="158.01" x2="228.5" y2="131.01" style="fill: none; stroke: #000; stroke-miterlimit: 10; stroke-width: 11px;"/>
  <line x1="250" y1="136.51" x2="269" y2="167.51" style="fill: none; stroke: #000; stroke-miterlimit: 10; stroke-width: 2px;"/>
  <line x1="260" y1="129.51" x2="281" y2="159.51" style="fill: none; stroke: #000; stroke-miterlimit: 10; stroke-width: 2px;"/>
  <line x1="281" y1="159.51" x2="269" y2="167.51" style="fill: none; stroke: #000; stroke-miterlimit: 10; stroke-width: 2px;"/>
</svg>