<?xml version="1.0" encoding="UTF-8"?><svg id="Lager_1" xmlns="http://www.w3.org/2000/svg" viewBox="0 0 420 102"><path d="M345.8,44.1c3.5-.3,6.7.8,9.9.8,3.7,7.1,8.1,13.6,12.2,20.1" style="fill:none; stroke:#000; stroke-miterlimit:10; stroke-width:3px;"/><line x1="345.8" y1="44.1" x2="334.6" y2="17.9" style="fill:none; stroke:#000; stroke-miterlimit:10; stroke-width:3px;"/><path d="M370.1,29.7c-2,3.3-2.8,6.9-4.4,10,3.3,7.1,6,14.6,8.7,21.7" style="fill:none; stroke:#000; stroke-miterlimit:10; stroke-width:3px;"/><line x1="370.1" y1="29.7" x2="356" y2="5.3" style="fill:none; stroke:#000; stroke-miterlimit:10; stroke-width:3px;"/><line x1="340.2" y1="15.8" x2="349" y2="33.4" style="fill:none; stroke:#000; stroke-miterlimit:10; stroke-width:3px;"/><line x1="352.1" y1="9.4" x2="360.8" y2="27.1" style="fill:none; stroke:#000; stroke-miterlimit:10; stroke-width:3px;"/><line x1="345.8" y1="12.9" x2="355.2" y2="29.9" style="fill:none; stroke:#000; stroke-miterlimit:10; stroke-width:3px;"/><path d="M375.1,57.5h0c-1.1.4-2.2.8-3.4,1.1,9.9-16.5,19.9-33,29.7-49.5,2.9,4.7,4,8.6,4.4,11.7,1.9,14.8-10.3,29.2-30.7,36.7h0Z" style="fill:none; stroke:#000; stroke-miterlimit:10; stroke-width:3px;"/><line x1="375.1" y1="57.5" x2="355.1" y2="86.9" style="fill:none; stroke:#000; stroke-miterlimit:10; stroke-width:11px;"/><line x1="378.3" y1="53" x2="375.1" y2="57.5" style="fill:none; stroke:#000; stroke-miterlimit:10; stroke-width:11px;"/><line x1="369.3" y1="67.8" x2="381.1" y2="89.7" style="fill:none; stroke:#000; stroke-miterlimit:10; stroke-width:2px;"/><line x1="375.5" y1="62.8" x2="388.6" y2="84" style="fill:none; stroke:#000; stroke-miterlimit:10; stroke-width:2px;"/><line x1="388.6" y1="84" x2="381.1" y2="89.7" style="fill:none; stroke:#000; stroke-miterlimit:10; stroke-width:2px;"/><text transform="translate(16.2 61.1)" style="font-family:Verdana, Verdana; font-size:25px;"><tspan x="0" y="0">Erbjuder ej student</tspan><tspan x="243.5" y="0" style="letter-spacing:0em;">r</tspan><tspan x="253.8" y="0">abatt</tspan></text><rect x="1.5" y="1.5" width="417" height="99" rx="18" ry="18" style="fill:none; stroke:#be1529; stroke-miterlimit:10; stroke-width:3px;"/></svg>