<?xml version="1.0" encoding="UTF-8"?><svg id="Lager_1" xmlns="http://www.w3.org/2000/svg" viewBox="0 0 204.1 313.4"><rect x="-43" y="114.3" width="294" height="59.8" transform="translate(-72.9 162.1) rotate(-60)" style="fill:#e6e6e6; stroke-width:0px;"/><path d="M151.7,2.6l51,29.4L56.2,285.8l-51-29.4L151.7,2.6M151.4,1.2L3.9,256.7l52.7,30.4L204.1,31.7,151.4,1.2h0Z" style="fill:#000; stroke-width:0px;"/><path d="M194.9,35.6c-6.3,0-15.2-2.9-23.6-7.8-14-8.1-22.8-19-19.7-24.4,1.1-1.9,3.6-2.9,7.4-2.9,6.3,0,15.2,2.9,23.6,7.8,6.8,3.9,12.6,8.7,16.4,13.4,3.6,4.5,4.8,8.5,3.4,11-1.1,1.9-3.6,2.9-7.4,2.9Z" style="fill:#e6e6e6; stroke-width:0px;"/><path d="M158.9,1h0c6.3,0,15,2.9,23.4,7.7,6.8,3.9,12.5,8.6,16.2,13.3,3.4,4.3,4.6,8.1,3.3,10.4-1.3,2.2-4.5,2.6-6.9,2.6-6.3,0-15-2.9-23.4-7.7-6.8-3.9-12.5-8.6-16.2-13.3-3.4-4.3-4.6-8.1-3.3-10.4,1.3-2.2,4.5-2.6,6.9-2.6M158.9,0c-3.8,0-6.6,1-7.8,3.1-3.2,5.6,5.7,16.8,19.9,25.1,8.8,5.1,17.7,7.9,23.9,7.9s6.6-1,7.8-3.1c3.2-5.6-5.7-16.8-19.9-25.1C173.9,2.7,165.1,0,158.9,0h0Z" style="fill:#000; stroke-width:0px;"/><path d="M2.9,312.9c-.6,0-1.3-.3-1.7-.7-.4-.5-.7-1.1-.6-1.7l2.3-52.9c0-1.4,1.2-2.3,2.4-2.3s.8.1,1.2.3l46.8,28.6c.7.5,1.2,1.2,1.1,2.1,0,.9-.5,1.6-1.3,2l-49.2,24.3c-.3.2-.7.2-1,.2Z" style="fill:#e6e6e6; stroke-width:0px;"/><path d="M5.2,255.8h0c.3,0,.7,0,1,.3l46.8,28.6c.6.4.9,1,.9,1.7,0,.7-.4,1.3-1,1.6l-49.2,24.3c-.3.1-.5.2-.8.2-.5,0-1-.2-1.3-.6-.3-.4-.5-.8-.5-1.4l2.3-52.9c0-1.1,1-1.8,1.9-1.8M5.2,254.8c-1.4,0-2.8,1.1-2.9,2.7L0,310.4c0,1.7,1.3,3,2.8,3s.8,0,1.3-.3l49.2-24.3c2-1,2.1-3.8.2-5l-46.8-28.6c-.5-.3-1-.4-1.5-.4h0Z" style="fill:#000; stroke-width:0px;"/><path d="M3.6,310.3v-5.1c0-.8,0-1.6,0-2.5s0-.9,0-1.3,0-.4,0-.4c.1,0-.3.4-.4.5-.1,0-.1,0,0,0h-.2c.2,0,.2,0,0,0h.1c.2,0,.2,0,0,0h.1c-.1,0-.1,0,0,0h0c.2.4.4,1.1.5,1.7.4,1.5,1.5,2.9,3.2,3s1.3-.5,1.4-1.1.3-1.4.7-2.1.2-.3.3-.5c0,0,0-.2.2-.2,0,0,0-.1,0,0,0,0-.8.2-.9,0,0,.1.3.3.4.4,1,1.2,1.8,2.5,2.6,3.9s1.4.9,2.1.5.9-1.3.5-2.1-1.1-1.9-1.7-2.8-.7-1-1.1-1.4-.7-.9-1.2-1.2c-2.7-1.4-4.3,2.7-4.6,4.7l1.4-1.1c.2,0,.2,0,0,0,.1,0,.1,0,0,0h0c-.1,0-.1,0,0,0,0-.1-.2-.3-.2-.4,0,.1,0,.1,0,0,0-.1,0-.2,0-.3-.2-.8-.3-1.6-.7-2.3-.8-1.5-2.9-2.2-4.3-1.1s-.9,1.7-.9,2.7v2.8c0,1.9,0,3.8.1,5.8s.7,1.5,1.5,1.5,1.5-.7,1.5-1.5h0Z" style="fill:#000; stroke-width:0px;"/><path d="M4.3,311.8c2.3-1.7,4.6-3.3,7-5l-1.2.2c-.2,0-.4-.2-.6-.4,0-.2,0-.3,0-.1v-.2c0,.2,0,.1,0-.1,0,0-.1.3,0,0,0,.1,0,.1,0,0-.1.1,0,0,0,0,0,0-.2,0-.4,0-.4,0-.7,0-1.1,0-1.6,0-3.3,1-3.3,2.8s.5,1.3,1.1,1.4c1.1.2,2.2,0,3.1-.7s1.6-1.6,2-2.6.4-2.2.3-3.3-.1-2.7-1.2-3.4-2-.4-2.9-.3-1.9.3-2.9.7c-1.8.8-2.6,2.6-2.6,4.5s.1,1.7,0,2.6,0,.4,0,.6v-.2c0,0,0,.1,0,.2,0,.1,0,.2,0,.3,0,.2,0,0,0,0s-.1.2-.1.3c-.1.2.2,0,0,0s-.2.2-.3.3c-.6.5-.5,1.6,0,2.1s1.5.5,2.1,0c1.2-.9,1.4-2.5,1.4-3.9s0-1.3,0-1.9,0-.3,0-.5,0-.2,0-.2c0-.2,0,.3,0,0s0-.3,0-.4,0-.1,0-.2c0,.3,0,0,0,0s0-.1,0-.2.2-.2,0,0,0,0,0,0c0,0,.1-.1.2-.2.1-.2-.2.1,0,0s.1,0,.2-.1c0,0,.5-.3.2-.1.3-.1.6-.2.9-.3s.3,0,.5,0,.3,0,.1,0,.1,0,.2,0c.3,0,.7,0,1,0s.2,0,.3,0,.2,0,0,0-.2,0-.3-.2c-.1,0-.2-.2-.2-.3h0c.1.9.2,1.6.2,2.5s0,.2,0,.2c0,0,0,.5,0,.3,0,.2,0,.5-.2.7s0,.1,0,.2c.1-.3,0,0,0,.1,0,0,0,.2-.1.2-.1.2,0,0,0,0s-.3.3-.4.4c.2-.2-.2.1-.3.2-.2.1.2,0,0,0s-.2,0-.3,0c0,0,.3,0,0,0s-.5,0-.1,0l1.1,1.4c0-.3,0,.3-.2.4,0,0,.1-.1.2-.2-.1.1-.2.1,0,0,0,0,.1,0,.2,0-.2,0-.2,0,0,0,0,0,.2,0,.2,0-.2,0-.2,0,0,0,.8,0,1.7,0,2.4-.2,1.6-.6,2.5-2.6,1.4-4s-.9-.8-1.5-.8-1,.4-1.5.7c-.7.5-1.4,1-2,1.4-1.4,1-2.8,2-4.2,3s-1,1.3-.5,2.1,1.4,1,2.1.5h0Z" style="fill:#000; stroke-width:0px;"/><path d="M4.8,308.6c1.9,0,1.9-3,0-3s-1.9,3,0,3h0Z" style="fill:#000; stroke-width:0px;"/><path d="M2.9,312.2c1.9,0,1.9-3,0-3s-1.9,3,0,3h0Z" style="fill:#000; stroke-width:0px;"/><path d="M11.2,309c1.9,0,1.9-3,0-3s-1.9,3,0,3h0Z" style="fill:#000; stroke-width:0px;"/><path d="M7,310.2c1.4-1.5,2.8-2.9,4.3-4.4s.5-1.5,0-2.1c-1-1.2-2.5-1.6-4-1.7s-1.3,0-1.9,0-1.5,0-2.2.3c-1.6.5-2.7,1.9-2.8,3.6s.7,3,1.9,3.8,3.4.9,4.9,0,1-1.4.5-2.1-1.3-.9-2.1-.5,0,0-.1,0c-.2,0,.1,0,.1,0,0,0-.3,0-.4.1s-.2,0-.3,0c-.2,0,.1,0,.1,0,0,0-.2,0-.2,0-.1,0-.3,0-.4,0s-.1,0-.2,0c0,0,.3,0,.1,0s-.2,0-.4,0,0,0-.2,0c-.2,0,.2.1,0,0s-.2,0-.3-.2-.1,0-.1,0c0,0,.2.2,0,0s-.2-.2-.2-.2.2.3,0,.1,0-.1-.1-.2,0-.1,0-.2c0-.1,0,.1,0,.1s0-.3,0-.3c0,0,0,0,0-.1,0-.1,0,.1,0,.2,0,0,0-.3,0-.4s0,0,0-.1c0-.2,0,.1,0,.2,0,0,0-.3,0-.3s0,0,0-.1c0-.1,0,0,0,0,0,0,0,.1,0,0s0-.1,0-.2c.1-.2-.2.2,0,0s.1-.1.1,0c0,0-.3.2-.1,0s.2-.1.3-.2c.2-.1-.2,0,0,0s.2,0,.2,0c.1,0,.2,0,.4,0,.2,0,0,0,0,0,0,0,.2,0,.2,0,.3,0,.5,0,.8,0,.5,0,1,0,1.5,0s.3,0,.4,0-.1,0-.1,0c0,0,.2,0,.3,0,.3,0,.5.1.7.2s.1,0,.2,0c.2,0-.2-.1,0,0s.2.1.3.2,0,0,.1,0c.2,0-.2-.2,0,0s.2.2.3.3v-2.1c-1.4,1.5-2.8,2.9-4.3,4.4s-.6,1.6,0,2.1,1.5.6,2.1,0h0Z" style="fill:#000; stroke-width:0px;"/></svg>