<?xml version="1.0" encoding="UTF-8"?><svg id="Lager_1" xmlns="http://www.w3.org/2000/svg" viewBox="0 0 100 91.8"><path d="M81.8,33.2c-1.4-4.3-3.7-8.3-6.4-11.9-4.3-5.6-10.2-10.2-17-12.8s-16-3.9-23.9-2.2-16.5,7.2-21.6,14.4-7.5,15.3-7.4,23.8.6,7.5,1.6,11.1c1.5,5.2,3.9,10.2,7.2,14.6s10.4,10.8,17.5,13.4,15.2,3.5,22.7,1.8,17-7.7,22-15.4,2.1-3.6,2.9-5.4" style="fill:none; stroke:#fff; stroke-miterlimit:10; stroke-width:11px;"/><polygon points="84.2 49.7 72.4 33.5 91.5 30.4 84.2 49.7" style="fill:#fff; stroke:#fff; stroke-miterlimit:10; stroke-width:11px;"/></svg>