<?xml version="1.0" encoding="UTF-8"?><svg id="Lager_1" xmlns="http://www.w3.org/2000/svg" viewBox="0 0 309.2 376.6"><polygon points="69.3 374.1 3.2 96.1 304.8 96.1 231.3 374.1 69.3 374.1" style="fill:#fff; stroke-width:0px;"/><path d="M301.5,98.6l-38.4,145.2-33.8,127.8H71.3l-30.6-128.7L6.3,98.6h295.2M308,93.6H0c22.5,94.3,44.9,188.7,67.4,283h165.8c24.9-94.3,49.9-188.7,74.8-283h0Z" style="fill:#000; stroke-width:0px;"/><line x1="8" y1="6.8" x2="307.5" y2="80.7" style="fill:none; stroke:#000; stroke-miterlimit:10; stroke-width:14px;"/><line x1="71" y1="137.6" x2="95" y2="308.6" style="fill:none; stroke:#000; stroke-miterlimit:10; stroke-width:4px;"/><line x1="150" y1="141.6" x2="148" y2="305.6" style="fill:none; stroke:#000; stroke-miterlimit:10; stroke-width:4px;"/><line x1="230" y1="139.6" x2="202" y2="308.6" style="fill:none; stroke:#000; stroke-miterlimit:10; stroke-width:4px;"/><line x1="130.3" y1="10.5" x2="189.4" y2="25.9" style="fill:none; stroke:#000; stroke-miterlimit:10; stroke-width:5px;"/><line x1="130.3" y1="10.5" x2="124.4" y2="30.5" style="fill:none; stroke:#000; stroke-miterlimit:10; stroke-width:5px;"/><line x1="189.4" y1="25.9" x2="184.7" y2="45.2" style="fill:none; stroke:#000; stroke-miterlimit:10; stroke-width:5px;"/></svg>