<?xml version="1.0" encoding="UTF-8"?><svg id="Lager_1" xmlns="http://www.w3.org/2000/svg" viewBox="0 0 308 331"><polygon points="69.4 328.5 3.2 50.5 304.8 50.5 231.3 328.5 69.4 328.5" style="fill:#fff; stroke-width:0px;"/><path d="M301.5,53l-35.7,135.2-36.4,137.8H71.3l-32.8-137.7L6.4,53h295.2M308,48H0c22.5,94.3,44.9,188.7,67.4,283h165.8c24.9-94.3,49.9-188.7,74.8-283h0Z" style="fill:#000; stroke-width:0px;"/><line x1="0" y1="28" x2="308" y2="29" style="fill:none; stroke:#000; stroke-miterlimit:10; stroke-width:14px;"/><line x1="71" y1="92" x2="95" y2="263" style="fill:none; stroke:#000; stroke-miterlimit:10; stroke-width:4px;"/><line x1="150" y1="96" x2="148" y2="260" style="fill:none; stroke:#000; stroke-miterlimit:10; stroke-width:4px;"/><line x1="230" y1="94" x2="202" y2="263" style="fill:none; stroke:#000; stroke-miterlimit:10; stroke-width:4px;"/><line x1="119.5" y1="2.5" x2="180.5" y2="3.5" style="fill:none; stroke:#000; stroke-miterlimit:10; stroke-width:5px;"/><line x1="119.5" y1="2.5" x2="118.5" y2="23.5" style="fill:none; stroke:#000; stroke-miterlimit:10; stroke-width:5px;"/><line x1="180.5" y1="3.5" x2="180.5" y2="23.5" style="fill:none; stroke:#000; stroke-miterlimit:10; stroke-width:5px;"/></svg>