<?xml version="1.0" encoding="UTF-8"?><svg id="Lager_1" xmlns="http://www.w3.org/2000/svg" viewBox="0 0 420 102"><path d="M329.2,37.4c4.6,1.6,7.5,5.7,11.5,7.6-2.1,15.7-3,30.7-4,45.7" style="fill:none; stroke:#000; stroke-miterlimit:10; stroke-width:3px;"/><line x1="329.2" y1="37.4" x2="330" y2="10.9" style="fill:none; stroke:#000; stroke-miterlimit:10; stroke-width:3px;"/><path d="M356.1,34.9c-2.1,2.6-4.4,5.3-7,7.9-.7.7-1.3,1.3-2,2,.8,15.3,1.7,30.6,2.5,45.9" style="fill:none; stroke:#000; stroke-miterlimit:10; stroke-width:3px;"/><line x1="356.7" y1="36.1" x2="354.2" y2="9.9" style="fill:none; stroke:#000; stroke-miterlimit:10; stroke-width:3px;"/><line x1="335.8" y1="11.6" x2="336.4" y2="30" style="fill:none; stroke:#000; stroke-miterlimit:10; stroke-width:3px;"/><line x1="349" y1="11.5" x2="349.6" y2="29.9" style="fill:none; stroke:#000; stroke-miterlimit:10; stroke-width:3px;"/><line x1="342" y1="11.7" x2="343.4" y2="29.8" style="fill:none; stroke:#000; stroke-miterlimit:10; stroke-width:3px;"/><path d="M377.2,64.2h0c-.7.9-1.5,1.8-2.3,2.7,0-19-.2-38.1-.4-57.1,4.9,2.5,7.9,5.2,9.8,7.6,9.3,11.5,6.4,30-7.1,46.8h0Z" style="fill:none; stroke:#000; stroke-miterlimit:10; stroke-width:3px;"/><line x1="375.2" y1="57.5" x2="374.7" y2="92.7" style="fill:none; stroke:#000; stroke-miterlimit:10; stroke-width:11px;"/><line x1="351.6" y1="91.7" x2="335" y2="91.4" style="fill:none; stroke:#000; stroke-miterlimit:10; stroke-width:2px;"/><text transform="translate(15.2 57.8)" style="font-family:Verdana, Verdana; font-size:25px;"><tspan x="0" y="0">Erbjuder student</tspan><tspan x="211.2" y="0" style="letter-spacing:0em;">r</tspan><tspan x="221.5" y="0">abatt</tspan></text><rect x="1.5" y="1.5" width="417" height="99" rx="18" ry="18" style="fill:none; stroke:#329100; stroke-miterlimit:10; stroke-width:3px;"/></svg>